<?xml version="1.0" encoding="UTF-8" standalone="no"?>
<!-- Created with Inkscape (http://www.inkscape.org/) -->

<svg
   xmlns:dc="http://purl.org/dc/elements/1.1/"
   xmlns:cc="http://creativecommons.org/ns#"
   xmlns:rdf="http://www.w3.org/1999/02/22-rdf-syntax-ns#"
   xmlns:svg="http://www.w3.org/2000/svg"
   xmlns="http://www.w3.org/2000/svg"
   xmlns:sodipodi="http://sodipodi.sourceforge.net/DTD/sodipodi-0.dtd"
   xmlns:inkscape="http://www.inkscape.org/namespaces/inkscape"
   width="64px"
   height="64px"
   id="svg2930"
   version="1.1"
   inkscape:version="0.47pre4 r22446"
   sodipodi:docname="vim-mutiny-mascot.svg"
   inkscape:export-filename="/home/arthurb/projects/vim/vim-mutiny/vimutiny/artwork/vim-mutiny-logo-ideas/vim-mutiny-mascot.png"
   inkscape:export-xdpi="450"
   inkscape:export-ydpi="450">
  <defs
     id="defs2932">
    <inkscape:perspective
       sodipodi:type="inkscape:persp3d"
       inkscape:vp_x="0 : 32 : 1"
       inkscape:vp_y="0 : 1000 : 0"
       inkscape:vp_z="64 : 32 : 1"
       inkscape:persp3d-origin="32 : 21.333333 : 1"
       id="perspective2938" />
  </defs>
  <sodipodi:namedview
     id="base"
     pagecolor="#ffffff"
     bordercolor="#666666"
     borderopacity="1.0"
     inkscape:pageopacity="0.0"
     inkscape:pageshadow="2"
     inkscape:zoom="5.6568542"
     inkscape:cx="44.838774"
     inkscape:cy="37.875525"
     inkscape:current-layer="layer1"
     showgrid="true"
     inkscape:document-units="px"
     inkscape:grid-bbox="true"
     inkscape:window-width="1440"
     inkscape:window-height="850"
     inkscape:window-x="0"
     inkscape:window-y="25"
     inkscape:window-maximized="1"
     showguides="true"
     inkscape:guide-bbox="true" />
  <metadata
     id="metadata2935">
    <rdf:RDF>
      <cc:Work
         rdf:about="">
        <dc:format>image/svg+xml</dc:format>
        <dc:type
           rdf:resource="http://purl.org/dc/dcmitype/StillImage" />
        <dc:title />
      </cc:Work>
    </rdf:RDF>
  </metadata>
  <g
     id="layer1"
     inkscape:label="Layer 1"
     inkscape:groupmode="layer">
    <path
       style="fill:#980101;fill-opacity:1;stroke:#000000;stroke-width:0.36646655;stroke-linecap:round;stroke-linejoin:round;stroke-miterlimit:4;stroke-opacity:1;stroke-dasharray:none;stroke-dashoffset:0"
       d="m 27.899991,22.244516 c 0,0 1.447275,0.459108 2.440635,-0.365121 0.227565,-0.188818 0.489071,-0.02628 0.880467,0.365121 0.742302,0.742302 0.629865,1.803703 0.629865,1.803703 -0.969949,-0.07323 -1.61013,-0.74617 -2.304442,-0.202735 -1.279418,1.001395 -1.872012,-0.514975 -1.646525,-1.600968 z"
       id="rect3817"
       sodipodi:nodetypes="csscsc" />
    <path
       style="fill:none;stroke:#000000;stroke-width:2.71062446;stroke-linecap:butt;stroke-linejoin:miter;stroke-miterlimit:4;stroke-opacity:1;stroke-dasharray:none"
       d="m 24.450048,37.917631 -8.440404,10.81174"
       id="path2944" />
    <path
       style="fill:none;stroke:#000000;stroke-width:2.71062446;stroke-linecap:round;stroke-linejoin:miter;stroke-miterlimit:4;stroke-opacity:1;stroke-dasharray:none"
       d="m 30.468218,37.344252 8.936899,10.271155 0.288458,14.59585"
       id="path2946"
       sodipodi:nodetypes="ccc" />
    <path
       style="fill:none;stroke:#000000;stroke-width:2.71062446;stroke-linecap:round;stroke-linejoin:miter;stroke-miterlimit:4;stroke-opacity:1;stroke-dasharray:none"
       d="M 17.208286,24.846572 C 9.5064279,26.690205 7.1890918,28.607073 6.0739714,34.036552"
       id="path2950"
       sodipodi:nodetypes="cc" />
    <path
       style="fill:none;stroke:#000000;stroke-width:2.71062446;stroke-linecap:butt;stroke-linejoin:miter;stroke-miterlimit:4;stroke-opacity:1;stroke-dasharray:none"
       d="m 43.522493,24.576279 7.779714,4.159108"
       id="path2952"
       sodipodi:nodetypes="cc" />
    <text
       xml:space="preserve"
       style="font-size:80.59307098px;font-style:normal;font-variant:normal;font-weight:normal;font-stretch:normal;text-align:start;line-height:100%;writing-mode:lr-tb;text-anchor:start;fill:#339900;fill-opacity:1;stroke:#015a01;stroke-width:2.01482677;font-family:Tomson Talks;-inkscape-font-specification:Tomson Talks"
       x="4.637609"
       y="57.486454"
       id="text2940"
       sodipodi:linespacing="100%"
       transform="scale(1.3553123,0.73783733)"><tspan
         sodipodi:role="line"
         id="tspan2942"
         x="4.637609"
         y="57.486454"
         style="fill:#339900;stroke-width:2.01482677">V</tspan></text>
    <path
       style="fill:#000000;stroke:#000000;stroke-width:1.76364362px;stroke-linecap:butt;stroke-linejoin:round;stroke-opacity:1"
       d="M 8.6616369,13.70492 C 19.376144,15.543191 42.623256,14.616881 55.504769,9.1391817 55.881502,8.1869146 56.587497,7.3087632 56.792471,4.0565449 54.951056,6.6916117 46.502583,6.8446913 40.876916,6.008912 37.215098,5.4648913 34.246886,1.3161755 30.206654,1.3152529 25.123348,1.3141029 23.149903,6.7586916 19.053942,7.6546542 14.08963,8.7405606 8.0437939,7.6977102 5.8790756,6.9268094 7.3185688,11.085483 7.6790729,11.751474 8.6616369,13.70492 z"
       id="path2948"
       sodipodi:nodetypes="cccssscc" />
    <g
       id="g3916"
       transform="matrix(1.1049252,0,0,1,-4.0050657,-0.3585593)">
      <g
         style="fill:#eeeeee;stroke:#eeeeee"
         transform="matrix(1.165764,-0.21307169,0.21307169,1.165764,-4.9118068,-3.4573119)"
         id="g3730">
        <path
           sodipodi:type="arc"
           style="fill:#eeeeee;stroke:#eeeeee;stroke-width:1;stroke-linecap:round;stroke-linejoin:round;stroke-miterlimit:4;stroke-opacity:1;stroke-dasharray:none;stroke-dashoffset:0"
           id="path3726"
           sodipodi:cx="28.444977"
           sodipodi:cy="13.875772"
           sodipodi:rx="1.6392021"
           sodipodi:ry="1.2695781"
           d="m 30.084179,13.875772 c 0,0.701169 -0.733896,1.269579 -1.639202,1.269579 -0.905307,0 -1.639202,-0.56841 -1.639202,-1.269579 0,-0.701168 0.733895,-1.269578 1.639202,-1.269578 0.905306,0 1.639202,0.56841 1.639202,1.269578 z"
           transform="matrix(0.97681736,0,0,1.1852579,0.65942967,-2.8437962)" />
        <path
           sodipodi:type="arc"
           style="fill:#eeeeee;fill-opacity:1;stroke:#eeeeee;stroke-width:1;stroke-linecap:round;stroke-linejoin:round;stroke-miterlimit:4;stroke-opacity:1;stroke-dasharray:none;stroke-dashoffset:0"
           id="path3728"
           sodipodi:cx="28.284271"
           sodipodi:cy="15.547114"
           sodipodi:rx="0.83567166"
           sodipodi:ry="0.81960106"
           d="m 29.119943,15.547114 c 0,0.452654 -0.374143,0.819601 -0.835672,0.819601 -0.461528,0 -0.835671,-0.366947 -0.835671,-0.819601 0,-0.452653 0.374143,-0.819601 0.835671,-0.819601 0.461529,0 0.835672,0.366948 0.835672,0.819601 z"
           transform="translate(0.16070557,-0.06428243)" />
      </g>
      <g
         transform="translate(-0.22097087,-0.35355339)"
         id="g3908">
        <path
           style="fill:none;stroke:#eeeeee;stroke-width:0.94300002;stroke-linecap:butt;stroke-linejoin:miter;stroke-miterlimit:4;stroke-opacity:1;stroke-dasharray:none"
           d="m 28.617127,11.663525 7.611912,0.454517"
           id="path3734" />
        <path
           id="path3736"
           d="m 28.943582,13.449636 6.959002,-3.117705"
           style="fill:none;stroke:#eeeeee;stroke-width:0.94300002;stroke-linecap:butt;stroke-linejoin:miter;stroke-miterlimit:4;stroke-opacity:1;stroke-dasharray:none" />
        <path
           sodipodi:type="arc"
           style="fill:none;stroke:#eeeeee;stroke-width:0.63432723;stroke-linecap:round;stroke-linejoin:round;stroke-miterlimit:4;stroke-opacity:1;stroke-dasharray:none;stroke-dashoffset:0"
           id="path3738"
           sodipodi:cx="25.600479"
           sodipodi:cy="15.514974"
           sodipodi:rx="0.20891792"
           sodipodi:ry="0.17677669"
           d="m 25.809397,15.514974 c 0,0.09763 -0.09354,0.176776 -0.208918,0.176776 -0.115382,0 -0.208918,-0.07915 -0.208918,-0.176776 0,-0.09763 0.09354,-0.176777 0.208918,-0.176777 0.115382,0 0.208918,0.07915 0.208918,0.176777 z"
           transform="matrix(1.4623885,-0.26728703,0.26728703,1.4623885,-13.209253,-4.3085691)" />
        <path
           d="m 25.809397,15.514974 c 0,0.09763 -0.09354,0.176776 -0.208918,0.176776 -0.115382,0 -0.208918,-0.07915 -0.208918,-0.176776 0,-0.09763 0.09354,-0.176777 0.208918,-0.176777 0.115382,0 0.208918,0.07915 0.208918,0.176777 z"
           sodipodi:ry="0.17677669"
           sodipodi:rx="0.20891792"
           sodipodi:cy="15.514974"
           sodipodi:cx="25.600479"
           id="path3740"
           style="fill:none;stroke:#eeeeee;stroke-width:0.63432723;stroke-linecap:round;stroke-linejoin:round;stroke-miterlimit:4;stroke-opacity:1;stroke-dasharray:none;stroke-dashoffset:0"
           sodipodi:type="arc"
           transform="matrix(1.4623885,-0.26728703,0.26728703,1.4623885,-5.6887815,-5.683118)" />
        <path
           transform="matrix(1.4623885,-0.26728703,0.26728703,1.4623885,-5.3193715,-3.6619914)"
           sodipodi:type="arc"
           style="fill:none;stroke:#eeeeee;stroke-width:0.63432723;stroke-linecap:round;stroke-linejoin:round;stroke-miterlimit:4;stroke-opacity:1;stroke-dasharray:none;stroke-dashoffset:0"
           id="path3742"
           sodipodi:cx="25.600479"
           sodipodi:cy="15.514974"
           sodipodi:rx="0.20891792"
           sodipodi:ry="0.17677669"
           d="m 25.809397,15.514974 c 0,0.09763 -0.09354,0.176776 -0.208918,0.176776 -0.115382,0 -0.208918,-0.07915 -0.208918,-0.176776 0,-0.09763 0.09354,-0.176777 0.208918,-0.176777 0.115382,0 0.208918,0.07915 0.208918,0.176777 z" />
        <path
           d="m 25.809397,15.514974 c 0,0.09763 -0.09354,0.176776 -0.208918,0.176776 -0.115382,0 -0.208918,-0.07915 -0.208918,-0.176776 0,-0.09763 0.09354,-0.176777 0.208918,-0.176777 0.115382,0 0.208918,0.07915 0.208918,0.176777 z"
           sodipodi:ry="0.17677669"
           sodipodi:rx="0.20891792"
           sodipodi:cy="15.514974"
           sodipodi:cx="25.600479"
           id="path3744"
           style="fill:none;stroke:#eeeeee;stroke-width:0.63432723;stroke-linecap:round;stroke-linejoin:round;stroke-miterlimit:4;stroke-opacity:1;stroke-dasharray:none;stroke-dashoffset:0"
           sodipodi:type="arc"
           transform="matrix(1.4623885,-0.26728703,0.26728703,1.4623885,-12.745837,-2.3046243)" />
      </g>
      <path
         transform="matrix(0.9667821,-0.17670292,0.17670292,0.9667821,2.794377,-3.8389113)"
         sodipodi:type="arc"
         style="fill:none;stroke:#000000;stroke-width:0.5;stroke-linecap:round;stroke-linejoin:round;stroke-miterlimit:4;stroke-opacity:1;stroke-dasharray:none;stroke-dashoffset:0"
         id="path3746"
         sodipodi:cx="25.600479"
         sodipodi:cy="15.514974"
         sodipodi:rx="0.20891792"
         sodipodi:ry="0.17677669"
         d="m 25.809397,15.514974 c 0,0.09763 -0.09354,0.176776 -0.208918,0.176776 -0.115382,0 -0.208918,-0.07915 -0.208918,-0.176776 0,-0.09763 0.09354,-0.176777 0.208918,-0.176777 0.115382,0 0.208918,0.07915 0.208918,0.176777 z" />
      <path
         d="m 25.809397,15.514974 c 0,0.09763 -0.09354,0.176776 -0.208918,0.176776 -0.115382,0 -0.208918,-0.07915 -0.208918,-0.176776 0,-0.09763 0.09354,-0.176777 0.208918,-0.176777 0.115382,0 0.208918,0.07915 0.208918,0.176777 z"
         sodipodi:ry="0.17677669"
         sodipodi:rx="0.20891792"
         sodipodi:cy="15.514974"
         sodipodi:cx="25.600479"
         id="path3748"
         style="fill:none;stroke:#000000;stroke-width:0.5;stroke-linecap:round;stroke-linejoin:round;stroke-miterlimit:4;stroke-opacity:1;stroke-dasharray:none;stroke-dashoffset:0"
         sodipodi:type="arc"
         transform="matrix(0.9667821,-0.17670292,0.17670292,0.9667821,4.4864833,-4.1481848)" />
    </g>
    <g
       id="g3617"
       transform="matrix(1.8368713,0,0,1,-29.259439,-0.16840312)">
      <path
         sodipodi:nodetypes="csc"
         id="path3788"
         d="m 45.416917,30.490325 c 1.329885,1.527035 2.533154,2.546493 2.510499,3.308063 -0.04171,1.402488 -1.060781,1.59978 -2.964424,-0.465059"
         style="fill:none;stroke:#000000;stroke-width:0.74330717;stroke-linecap:butt;stroke-linejoin:round;stroke-miterlimit:4;stroke-opacity:1;stroke-dasharray:none" />
      <rect
         style="fill:#565248;stroke:#565248;stroke-width:0.46506166;stroke-linecap:round;stroke-linejoin:round;stroke-miterlimit:4;stroke-opacity:1;stroke-dasharray:none;stroke-dashoffset:0"
         id="rect3786"
         width="2.9554214"
         height="0.93140179"
         x="17.61137"
         y="53.170261"
         transform="matrix(0.7133155,-0.70084306,0.585775,0.81047372,0,0)" />
      <rect
         transform="matrix(0.71745877,-0.69660098,0.70459918,0.70960552,0,0)"
         y="50.952885"
         x="8.8859396"
         height="1.192687"
         width="3.795692"
         id="rect3784"
         style="fill:#816647;stroke:#816647;stroke-width:0.59640461;stroke-linecap:round;stroke-linejoin:round;stroke-miterlimit:4;stroke-opacity:1;stroke-dasharray:none;stroke-dashoffset:0" />
    </g>
    <g
       id="g3622"
       transform="matrix(1.8368713,0,0,1,-29.259439,-0.16840312)">
      <path
         sodipodi:nodetypes="cccc"
         id="rect3794"
         d="m 23.766688,50.402512 2.677965,0 -1.338983,12.11569 -1.338982,-12.11569 z"
         style="fill:#565248;fill-opacity:1;stroke:#565248;stroke-width:0.90893102;stroke-linecap:butt;stroke-linejoin:round;stroke-miterlimit:4;stroke-opacity:1;stroke-dashoffset:0" />
      <rect
         style="fill:#816647;stroke:#816647;stroke-width:0.77305567;stroke-linecap:round;stroke-linejoin:round;stroke-miterlimit:4;stroke-opacity:1;stroke-dasharray:none;stroke-dashoffset:0"
         id="rect3790"
         width="3.712563"
         height="2.048722"
         x="23.76807"
         y="47.898136"
         transform="matrix(0.99999543,0.00302435,-0.01059972,0.99994382,0,0)" />
    </g>
    <path
       sodipodi:type="arc"
       style="fill:#000000;fill-opacity:1;stroke:#000000;stroke-width:0.5;stroke-linecap:round;stroke-linejoin:round;stroke-miterlimit:4;stroke-opacity:1;stroke-dasharray:none;stroke-dashoffset:0"
       id="path3799"
       sodipodi:cx="27.930717"
       sodipodi:cy="21.927147"
       sodipodi:rx="0.79549515"
       sodipodi:ry="1.5026019"
       d="m 28.726213,21.927147 a 0.79549515,1.5026019 0 1 1 -1.590991,0 0.79549515,1.5026019 0 1 1 1.590991,0 z"
       transform="matrix(1.7207036,0,0,0.93675788,-21.150308,-1.6536074)" />
    <path
       style="fill:#000000;fill-opacity:1;stroke:#000000;stroke-width:1.00741339;stroke-linecap:round;stroke-linejoin:round;stroke-miterlimit:4;stroke-opacity:1;stroke-dashoffset:0"
       d="m 30.819442,17.353909 6.275457,0 c -0.01118,2.317418 -1.012143,3.022186 -3.13773,3.022186 -2.125584,0 -3.137727,-1.013203 -3.137727,-3.022186 z"
       id="rect3801"
       sodipodi:nodetypes="ccac" />
    <path
       style="fill:none;stroke:#000000;stroke-width:0.60444802;stroke-linecap:butt;stroke-linejoin:miter;stroke-miterlimit:4;stroke-opacity:1;stroke-dasharray:none"
       d="M 30.45978,17.327059 20.119441,14.917023"
       id="path3804"
       sodipodi:nodetypes="cc" />
    <path
       style="fill:none;stroke:#000000;stroke-width:0.60444802;stroke-linecap:butt;stroke-linejoin:miter;stroke-miterlimit:4;stroke-opacity:1;stroke-dasharray:none"
       d="m 36.979721,17.379064 9.937321,-5.442758"
       id="path3806"
       sodipodi:nodetypes="cc" />
    <path
       style="fill:#980101;fill-opacity:1;stroke:#000000;stroke-width:0.27106246;stroke-linecap:round;stroke-linejoin:round;stroke-miterlimit:4;stroke-opacity:1;stroke-dashoffset:0"
       d="m 102.04305,22.085965 9.06907,0 -4.53453,2.328662 -4.53454,-2.328662 z"
       id="rect3614"
       sodipodi:nodetypes="cccc" />
  </g>
</svg>
