<?xml version="1.0" encoding="UTF-8" standalone="no"?>
<!-- Created with Inkscape (http://www.inkscape.org/) -->

<svg
   xmlns:dc="http://purl.org/dc/elements/1.1/"
   xmlns:cc="http://creativecommons.org/ns#"
   xmlns:rdf="http://www.w3.org/1999/02/22-rdf-syntax-ns#"
   xmlns:svg="http://www.w3.org/2000/svg"
   xmlns="http://www.w3.org/2000/svg"
   xmlns:xlink="http://www.w3.org/1999/xlink"
   xmlns:sodipodi="http://sodipodi.sourceforge.net/DTD/sodipodi-0.dtd"
   xmlns:inkscape="http://www.inkscape.org/namespaces/inkscape"
   inkscape:export-ydpi="90"
   inkscape:export-xdpi="90"
   inkscape:export-filename="/home/arthurb/local/apps/inkscape/projects/avatar/PirateShazz5.png"
   style="display:inline"
   version="1.0"
   inkscape:output_extension="org.inkscape.output.svg.inkscape"
   sodipodi:docname="vim-mutiny.svg"
   inkscape:version="0.47pre4 r22446"
   sodipodi:version="0.32"
   id="svg2"
   height="1052.3622"
   width="744.09448">
  <defs
     id="defs4">
    <linearGradient
       inkscape:collect="always"
       id="linearGradient6172">
      <stop
         style="stop-color:#336699;stop-opacity:1;"
         offset="0"
         id="stop6174" />
      <stop
         style="stop-color:#336699;stop-opacity:0;"
         offset="1"
         id="stop6176" />
    </linearGradient>
    <linearGradient
       inkscape:collect="always"
       id="linearGradient6114">
      <stop
         style="stop-color:#333333;stop-opacity:1;"
         offset="0"
         id="stop6116" />
      <stop
         style="stop-color:#333333;stop-opacity:0;"
         offset="1"
         id="stop6118" />
    </linearGradient>
    <linearGradient
       inkscape:collect="always"
       id="linearGradient5720">
      <stop
         style="stop-color:#333333;stop-opacity:1;"
         offset="0"
         id="stop5722" />
      <stop
         style="stop-color:#333333;stop-opacity:0;"
         offset="1"
         id="stop5724" />
    </linearGradient>
    <linearGradient
       inkscape:collect="always"
       id="linearGradient5673">
      <stop
         style="stop-color:#333333;stop-opacity:1;"
         offset="0"
         id="stop5675" />
      <stop
         style="stop-color:#333333;stop-opacity:0;"
         offset="1"
         id="stop5677" />
    </linearGradient>
    <linearGradient
       id="linearGradient5285">
      <stop
         style="stop-color:#000000;stop-opacity:1;"
         offset="0"
         id="stop5287" />
      <stop
         style="stop-color:#333333;stop-opacity:1"
         offset="1"
         id="stop5289" />
    </linearGradient>
    <linearGradient
       id="linearGradient5187">
      <stop
         style="stop-color:#333333;stop-opacity:1;"
         offset="0"
         id="stop5189" />
      <stop
         style="stop-color:#333333;stop-opacity:0;"
         offset="1"
         id="stop5191" />
    </linearGradient>
    <linearGradient
       id="linearGradient4940">
      <stop
         style="stop-color:#816647;stop-opacity:0.74901962;"
         offset="0"
         id="stop4942" />
      <stop
         style="stop-color:#816647;stop-opacity:1;"
         offset="1"
         id="stop4944" />
    </linearGradient>
    <linearGradient
       id="linearGradient4926">
      <stop
         style="stop-color:#816647;stop-opacity:0.49803922;"
         offset="0"
         id="stop4928" />
      <stop
         id="stop4938"
         offset="0.18483843"
         style="stop-color:#816647;stop-opacity:0.74901962;" />
      <stop
         id="stop4934"
         offset="0.51790059"
         style="stop-color:#816647;stop-opacity:1;" />
      <stop
         style="stop-color:#816647;stop-opacity:0.74901962;"
         offset="0.7997973"
         id="stop4936" />
      <stop
         style="stop-color:#816647;stop-opacity:0;"
         offset="1"
         id="stop4930" />
    </linearGradient>
    <linearGradient
       id="linearGradient4918">
      <stop
         style="stop-color:#816647;stop-opacity:1;"
         offset="0"
         id="stop4920" />
      <stop
         style="stop-color:#816647;stop-opacity:0;"
         offset="1"
         id="stop4922" />
    </linearGradient>
    <inkscape:perspective
       sodipodi:type="inkscape:persp3d"
       inkscape:vp_x="0 : 526.18109 : 1"
       inkscape:vp_y="0 : 1000 : 0"
       inkscape:vp_z="744.09448 : 526.18109 : 1"
       inkscape:persp3d-origin="372.04724 : 350.78739 : 1"
       id="perspective10" />
    <inkscape:perspective
       id="perspective2448"
       inkscape:persp3d-origin="372.04724 : 350.78739 : 1"
       inkscape:vp_z="744.09448 : 526.18109 : 1"
       inkscape:vp_y="0 : 1000 : 0"
       inkscape:vp_x="0 : 526.18109 : 1"
       sodipodi:type="inkscape:persp3d" />
    <inkscape:perspective
       id="perspective3385"
       inkscape:persp3d-origin="372.04724 : 350.78739 : 1"
       inkscape:vp_z="744.09448 : 526.18109 : 1"
       inkscape:vp_y="0 : 1000 : 0"
       inkscape:vp_x="0 : 526.18109 : 1"
       sodipodi:type="inkscape:persp3d" />
    <inkscape:perspective
       id="perspective3552"
       inkscape:persp3d-origin="0.5 : 0.33333333 : 1"
       inkscape:vp_z="1 : 0.5 : 1"
       inkscape:vp_y="0 : 1000 : 0"
       inkscape:vp_x="0 : 0.5 : 1"
       sodipodi:type="inkscape:persp3d" />
    <linearGradient
       inkscape:collect="always"
       xlink:href="#linearGradient4918"
       id="linearGradient4924"
       x1="366.36499"
       y1="779.07202"
       x2="483.55426"
       y2="956.55579"
       gradientUnits="userSpaceOnUse"
       gradientTransform="translate(0,-2.172441e-5)" />
    <linearGradient
       inkscape:collect="always"
       xlink:href="#linearGradient4926"
       id="linearGradient4932"
       x1="154.06902"
       y1="787.9256"
       x2="469.96088"
       y2="617.80084"
       gradientUnits="userSpaceOnUse"
       gradientTransform="translate(0,-2.172441e-5)" />
    <radialGradient
       inkscape:collect="always"
       xlink:href="#linearGradient4940"
       id="radialGradient4946"
       cx="323.03568"
       cy="740.33759"
       fx="323.03568"
       fy="740.33759"
       r="134.34819"
       gradientTransform="matrix(1,0,0,0.73800462,0,193.96501)"
       gradientUnits="userSpaceOnUse" />
    <radialGradient
       inkscape:collect="always"
       xlink:href="#linearGradient5187"
       id="radialGradient5193"
       cx="79.549515"
       cy="816.54205"
       fx="79.549515"
       fy="816.54205"
       r="44.194176"
       gradientTransform="matrix(1,0,0,0.24799998,0,614.03964)"
       gradientUnits="userSpaceOnUse" />
    <radialGradient
       inkscape:collect="always"
       xlink:href="#linearGradient5285"
       id="radialGradient5291"
       cx="79.549515"
       cy="816.54205"
       fx="79.549515"
       fy="816.54205"
       r="44.194176"
       gradientTransform="matrix(0.92079202,0,0,0.24799998,6.3009563,614.03964)"
       gradientUnits="userSpaceOnUse" />
    <radialGradient
       inkscape:collect="always"
       xlink:href="#linearGradient5673"
       id="radialGradient5683"
       cx="315"
       cy="828.36218"
       fx="315"
       fy="828.36218"
       r="70"
       gradientTransform="matrix(1,0,0,0.22857143,0,639.02224)"
       gradientUnits="userSpaceOnUse" />
    <radialGradient
       inkscape:collect="always"
       xlink:href="#linearGradient5720"
       id="radialGradient5738"
       cx="400.5"
       cy="760.86218"
       fx="400.5"
       fy="760.86218"
       r="75.5"
       gradientTransform="matrix(1,0,0,0.15231788,0,644.96925)"
       gradientUnits="userSpaceOnUse" />
    <inkscape:perspective
       id="perspective6053"
       inkscape:persp3d-origin="0.5 : 0.33333333 : 1"
       inkscape:vp_z="1 : 0.5 : 1"
       inkscape:vp_y="0 : 1000 : 0"
       inkscape:vp_x="0 : 0.5 : 1"
       sodipodi:type="inkscape:persp3d" />
    <radialGradient
       inkscape:collect="always"
       xlink:href="#linearGradient6114"
       id="radialGradient6152"
       gradientUnits="userSpaceOnUse"
       gradientTransform="matrix(1,0,0,0.13559322,0,563.04187)"
       cx="179"
       cy="651.36218"
       fx="179"
       fy="651.36218"
       r="59" />
    <clipPath
       clipPathUnits="userSpaceOnUse"
       id="clipPath6166">
      <path
         style="fill:#333333;fill-opacity:1;stroke:none"
         d="m 179.375,636.11218 67.625,20.75 -109.75,5.75 c 10.55904,-8.03863 11.19394,-11.27424 42.125,-26.5 z"
         id="path6168"
         sodipodi:nodetypes="cccc" />
    </clipPath>
    <linearGradient
       inkscape:collect="always"
       xlink:href="#linearGradient6172"
       id="linearGradient6181"
       gradientUnits="userSpaceOnUse"
       x1="248.25"
       y1="725.86218"
       x2="-1"
       y2="378.36218"
       gradientTransform="translate(0,-2.172441e-5)" />
  </defs>
  <sodipodi:namedview
     id="base"
     pagecolor="#ffffff"
     bordercolor="#666666"
     borderopacity="1.0"
     gridtolerance="10000"
     guidetolerance="10"
     objecttolerance="10"
     inkscape:pageopacity="0.0"
     inkscape:pageshadow="2"
     inkscape:zoom="0.52491084"
     inkscape:cx="668.73404"
     inkscape:cy="528.06667"
     inkscape:document-units="px"
     inkscape:current-layer="layer3"
     showgrid="false"
     inkscape:window-width="1440"
     inkscape:window-height="850"
     inkscape:window-x="0"
     inkscape:window-y="25"
     showguides="true"
     inkscape:guide-bbox="true"
     inkscape:window-maximized="1" />
  <metadata
     id="metadata7">
    <rdf:RDF>
      <cc:Work
         rdf:about="">
        <dc:format>image/svg+xml</dc:format>
        <dc:type
           rdf:resource="http://purl.org/dc/dcmitype/StillImage" />
        <dc:title />
      </cc:Work>
    </rdf:RDF>
  </metadata>
  <g
     inkscape:groupmode="layer"
     id="layer2"
     inkscape:label="concept"
     style="display:none"
     sodipodi:insensitive="true"
     transform="translate(0,2.172441e-5)">
    <image
       y="490.44388"
       x="-576.00311"
       id="image3554"
       height="386"
       width="400"
       xlink:href="file:///home/arthurb/inkscape/vim-mutiny/walk-plank.jpg" />
    <image
       y="114.56018"
       x="-647.89673"
       id="image6055"
       height="300"
       width="300"
       xlink:href="file:///home/arthurb/inkscape/vim-mutiny/vim-editor_logo-300x300.png" />
  </g>
  <g
     inkscape:groupmode="layer"
     id="layer8"
     inkscape:label="sea"
     style="display:inline"
     sodipodi:insensitive="true"
     transform="translate(0,2.172441e-5)">
    <path
       style="fill:url(#linearGradient6181);fill-opacity:1;stroke:none"
       d="M 134.5351,480.14443 C 201.72852,509.67006 452.5,619.86218 452.5,619.86218 c -111.66973,40.85834 -212.35422,87.48015 -287,152 0,0 -72.305591,-197.27822 -93.067686,-253.92542 C 51.670219,461.28957 67.341667,450.6188 134.5351,480.14443 z"
       id="rect6170"
       sodipodi:nodetypes="cccss" />
  </g>
  <g
     inkscape:groupmode="layer"
     id="layer7"
     inkscape:label="ship"
     style="display:inline"
     sodipodi:insensitive="true"
     transform="translate(0,2.172441e-5)">
    <path
       style="fill:url(#linearGradient4924);fill-opacity:1;stroke:none"
       d="m 240.5,839.86218 c 69.16901,-44.1513 130.2672,-85.8501 216.61872,-124.73744 23.8455,48.89611 28.8797,109.7314 -6.31974,140.8943 C 398.15836,902.62303 306.77874,864.60568 240.5,839.86218 z"
       id="rect4348"
       sodipodi:nodetypes="ccsc" />
    <path
       style="fill:url(#radialGradient4946);fill-opacity:1;stroke:none"
       d="m 188.6875,776.73718 c 54.93213,-42.35239 109.00857,-95.7273 250.79949,-135.54917 9.59302,23.82101 14.24035,48.74105 17.89689,73.88128 -84.02861,37.11122 -145.80763,79.85399 -217.44638,124.41789 l -51.25,-62.75 z"
       id="rect4345"
       sodipodi:nodetypes="ccccc" />
    <path
       style="fill:url(#linearGradient4932);fill-opacity:1;stroke:none"
       d="m 439.46686,628.4075 0.0884,12.8605 c -117.7509,32.60163 -179.47302,79.51844 -250.77634,135.34386 l -24.1033,-3.9159 C 234.27095,716.44033 305.10243,668.47725 439.46686,628.4075 z"
       id="rect4342"
       sodipodi:nodetypes="ccccc" />
    <path
       style="fill:none;stroke:#000000;stroke-width:1px;stroke-linecap:butt;stroke-linejoin:miter;stroke-opacity:1"
       d="M 185.26198,779.41897 C 256.5898,721.49461 335.29561,669.75182 441.23463,640.82604"
       id="path4336"
       sodipodi:nodetypes="cc" />
    <path
       style="fill:none;stroke:#000000;stroke-width:1px;stroke-linecap:butt;stroke-linejoin:miter;stroke-opacity:1"
       d="M 462.44784,712.95093 C 385.27122,745.43596 310.11779,795.11814 234.75945,843.05858"
       id="path4338"
       sodipodi:nodetypes="cc" />
    <path
       style="fill:none;stroke:#000000;stroke-width:1px;stroke-linecap:butt;stroke-linejoin:miter;stroke-opacity:1"
       d="M 161.22035,775.17632 C 245.80224,705.10691 341.33213,655.5055 447.59859,625.97679"
       id="path4334"
       sodipodi:nodetypes="cc" />
    <g
       id="g4913">
      <path
         sodipodi:nodetypes="ccccccc"
         id="rect3559"
         d="m 177.75,636.36218 146.18129,42.81361 0.71731,7.20936 -51.1486,27.97703 c -44.22969,-15.96137 -89.56444,-34.90462 -136.86143,-45.9583 l 0.61143,-5.5417 c 12.55104,-11.20573 26.68629,-18.45095 40.5,-26.5 z"
         style="fill:#986601;fill-opacity:1;stroke:#000000;stroke-width:1;stroke-linecap:round;stroke-linejoin:round;stroke-miterlimit:4;stroke-opacity:1;stroke-dasharray:none;stroke-dashoffset:0" />
      <path
         sodipodi:nodetypes="ccc"
         id="path4340"
         d="m 137.88582,663.80701 c 47.74962,10.13907 91.68517,28.10733 135.32884,45.54588 l 50.81702,-29.98953"
         style="fill:none;stroke:#000000;stroke-width:1px;stroke-linecap:butt;stroke-linejoin:miter;stroke-opacity:1" />
      <path
         sodipodi:nodetypes="cc"
         id="path4911"
         d="m 272.9375,709.42468 0.375,4.4375"
         style="fill:none;stroke:#000000;stroke-width:1px;stroke-linecap:butt;stroke-linejoin:miter;stroke-opacity:1" />
    </g>
  </g>
  <g
     inkscape:groupmode="layer"
     id="layer9"
     inkscape:label="vim logo"
     sodipodi:insensitive="true"
     transform="translate(0,2.172441e-5)">
    <path
       style="fill:url(#radialGradient6152);fill-opacity:1;stroke:none"
       d="m 238,651.36218 c 0,4.41828 -26.4152,8 -59,8 -32.5848,0 -59,-3.58172 -59,-8 0,-4.41828 26.4152,-8 59,-8 32.5848,0 59,3.58172 59,8 z"
       id="path6112"
       clip-path="url(#clipPath6166)" />
    <path
       id="path6073"
       d="m 169.02367,641.8328 -10.49405,-10.49405 -4.2858,4.21072 -4.2858,4.21071 -6.66903,-0.002 -6.66904,-0.002 -2.70833,-2.41599 -2.70833,-2.41601 0,-15.46183 0,-15.46183 -7.36667,-7.35711 c -4.05167,-4.04641 -7.36667,-7.65391 -7.36667,-8.01666 0,-0.36276 3.315,-3.97026 7.36667,-8.01667 l 7.36667,-7.35711 0,-11.59644 0,-11.59645 -1.30611,0 c -1.01344,0 -1.78832,-0.50976 -3.45819,-2.275 l -2.15209,-2.275 -0.008,-5.54356 -0.008,-5.54357 2.0093,-2.1481 2.0093,-2.1481 21.63585,0 c 14.92595,0 21.91249,0.14804 22.52785,0.47737 0.78727,0.42134 1.25564,0.11614 3.99003,-2.6 1.70393,-1.69255 3.38929,-3.07737 3.74525,-3.07737 0.35596,0 2.77802,2.13744 5.38236,4.74988 l 4.73515,4.74988 2.27318,-2.14988 2.27319,-2.14988 21.62974,0 21.62975,0 2.22952,2.35739 2.22953,2.35739 0,5.30833 0,5.30833 -7.9352,8.04261 c -4.36435,4.42344 -8.94258,9.11511 -10.17383,10.42595 l -2.23864,2.38333 10.82383,10.83646 c 5.95311,5.96005 10.82384,11.12526 10.82384,11.47825 0,0.35299 -2.97139,3.61783 -6.60309,7.25521 l -6.60309,6.61341 3.81085,0 c 3.71487,0 3.84198,0.0341 5.04688,1.35328 0.67981,0.7443 1.56841,1.97048 1.97467,2.72485 0.72974,1.35504 0.70861,1.4707 -1.75137,9.5884 -1.3695,4.51924 -2.58246,8.46056 -2.69546,8.75847 -0.1246,0.32852 0.15919,0.54167 0.72118,0.54167 0.50965,0 1.05126,0.32477 1.20358,0.72172 0.31791,0.82847 -1.47754,6.43375 -2.27203,7.09312 -0.32567,0.27028 -3.41886,0.39368 -8.03664,0.32061 l -7.50719,-0.11878 -0.30095,-1.08334 c -0.16552,-0.59583 -0.32039,-0.85351 -0.34414,-0.57262 -0.0238,0.2809 -0.34963,0.81715 -0.72415,1.19167 -0.9535,0.9535 -14.81559,1.02144 -15.17901,0.0744 -0.12801,-0.3336 0.0731,-1.6365 0.44694,-2.89532 0.7975,-2.68548 0.79792,-2.68901 0.27949,-2.3686 -0.22012,0.13603 -0.72415,1.22265 -1.12009,2.4147 -0.89857,2.70535 -1.63459,3.45577 -3.38944,3.45577 -1.22118,0 -2.45946,1.07918 -10.69027,9.31667 -5.12001,5.12417 -9.60381,9.31667 -9.96401,9.31667 -0.36019,0 -5.37721,-4.72233 -11.14894,-10.49405 z m -31.24094,-8.66651 c -0.388,-0.388 -0.51278,-11.09504 -0.51278,-44.00168 0,-28.88226 -0.14554,-43.39896 -0.43333,-43.22109 -0.2842,0.17564 -0.43333,15.12368 -0.43333,43.43312 0,39.61576 0.0592,43.23068 0.71956,43.96041 0.39576,0.43731 0.82151,0.69317 0.94611,0.56857 0.1246,-0.1246 -0.004,-0.4573 -0.28623,-0.73933 z m 86.35564,-11.3123 c 0.84237,-2.69841 1.53158,-5.14886 1.53158,-5.44545 0,-0.33263 -0.45661,-0.48672 -1.19167,-0.40214 -1.10227,0.12683 -1.30279,0.47659 -2.67316,4.66273 -1.06697,3.25935 -1.33301,4.57511 -0.95082,4.7025 0.29187,0.0973 0.76354,0.4421 1.04816,0.76624 0.28462,0.32414 0.55953,0.59676 0.61091,0.60583 0.0514,0.009 0.78264,-2.1913 1.625,-4.88971 z m -45.59816,-47.85214 c 23.68806,-24.04438 25.02974,-25.46969 25.02974,-26.58986 0,-1.45552 -36.40335,34.84756 -37.94664,37.84212 -1.07181,2.07973 -1.21564,2.50607 -0.84545,2.50607 0.11436,0 6.30741,-6.19125 13.76235,-13.75833 z m -48.63067,-32.825 -0.31654,-3.03333 -0.0615,2.85277 c -0.0338,1.56903 0.0685,2.98278 0.22737,3.14167 0.46971,0.46971 0.4825,0.21839 0.1507,-2.96111 z m 66.71838,2.58953 c -0.30147,-0.36326 -0.63738,-0.57124 -0.74645,-0.46217 -0.30051,0.30052 0.31007,1.12264 0.83378,1.12264 0.28734,0 0.25447,-0.24864 -0.0873,-0.66047 z m -0.98093,-4.86453 c -0.0993,-0.65542 -0.18052,-0.11917 -0.18052,1.19167 0,1.31083 0.0812,1.84708 0.18052,1.19166 0.0993,-0.65541 0.0993,-1.72791 0,-2.38333 z m -45.52396,-3.584 18.99692,-0.22567 -18.63333,-0.0929 c -19.65745,-0.0981 -20.59875,-0.0147 -20.95567,1.85516 -0.14044,0.73574 -0.04,0.70382 0.7159,-0.22755 l 0.87926,-1.08333 18.99692,-0.22567 z m 47.50616,0.0815 c -0.76907,-0.18445 -1.85924,0.71275 -1.85924,1.53013 0,0.46219 0.32751,0.36153 1.23005,-0.37805 0.83161,-0.68145 1.03542,-1.05465 0.62919,-1.15208 z m 38.67525,0.38961 c -0.1571,-0.25419 -0.6039,-0.46216 -0.99289,-0.46216 -0.59148,0 -0.56968,0.10059 0.13323,0.61457 0.90764,0.66369 1.31896,0.59076 0.85966,-0.15241 z m -65.88449,-0.0288 c -0.1473,-0.23834 -0.50006,-0.43035 -0.78391,-0.4267 -0.3101,0.004 -0.25665,0.1743 0.13391,0.4267 0.83249,0.53799 0.9825,0.53799 0.65,0 z"
       style="fill:#cacaca" />
    <path
       id="path6071"
       d="m 169.11995,641.49352 c -5.71628,-5.72 -10.54995,-10.4 -10.74149,-10.4 -0.19155,0 -2.14307,1.85399 -4.33672,4.11999 l -3.98845,4.11999 -6.71667,-0.009 -6.71667,-0.009 -2.49166,-2.19643 -2.49167,-2.19644 0,-15.46055 0,-15.46055 -7.36667,-7.35711 c -4.05166,-4.04641 -7.36666,-7.65391 -7.36666,-8.01666 0,-0.36276 3.315,-3.97026 7.36666,-8.01667 l 7.36667,-7.35711 0,-11.55008 c 0,-12.34187 0.0464,-12.07614 -2.11007,-12.07614 -0.40655,0 -1.6581,-0.93295 -2.78122,-2.07322 l -2.04204,-2.07322 0,-5.57202 0,-5.57202 2.10476,-2.10476 2.10476,-2.10476 20.88342,0 c 18.26236,0 21.05107,0.0867 22.21908,0.69069 l 1.33566,0.6907 3.09468,-3.07403 c 1.70207,-1.69072 3.38592,-3.07403 3.74188,-3.07403 0.35596,0 2.7741,2.13352 5.37365,4.74114 l 4.72644,4.74115 2.34275,-2.14115 2.34275,-2.14114 21.53971,0 21.5397,0 2.04204,2.07322 2.04205,2.07322 0,5.37208 0,5.37209 -9.96667,10.02606 c -5.48167,5.51433 -9.96667,10.30668 -9.96667,10.64968 0,0.34299 4.7775,5.39813 10.61667,11.23365 5.83917,5.83552 10.61667,10.90646 10.61667,11.26877 0,0.36231 -2.925,3.57886 -6.5,7.1479 -3.575,3.56904 -6.5,6.63785 -6.5,6.81958 0,0.18173 1.74711,0.33042 3.88246,0.33042 3.64932,0 3.94681,0.0694 4.95404,1.15565 0.58937,0.6356 1.41583,1.79489 1.8366,2.5762 0.76469,1.41995 0.76393,1.42416 -1.77252,9.78602 -1.39565,4.601 -2.55548,8.55583 -2.5774,8.78851 -0.0219,0.23267 0.3989,0.48998 0.93515,0.5718 1.23713,0.18876 1.23123,1.19677 -0.0271,4.63848 l -0.95062,2.6 -7.69029,0.11833 c -6.96392,0.10716 -7.69029,0.0495 -7.69029,-0.61059 0,-0.40091 1.0725,-4.08797 2.38333,-8.19345 1.31083,-4.10548 2.38333,-7.77947 2.38333,-8.1644 0,-0.85427 -2.27436,-0.97741 -2.92232,-0.15822 -0.48643,0.61497 -3.14434,8.49127 -3.14434,9.31774 0,0.29733 0.29862,0.54059 0.6636,0.54059 0.36498,0 0.77237,0.28346 0.90532,0.62991 0.2511,0.65437 -1.29294,5.23208 -2.0878,6.18983 -0.33065,0.39841 -2.32595,0.54693 -7.34778,0.54693 -7.84831,0 -7.82788,0.0101 -6.69339,-3.31942 0.38136,-1.11923 0.69338,-2.32295 0.69338,-2.67494 0,-1.12569 -1.64521,0.72388 -2.19865,2.47176 -0.85694,2.70641 -1.58065,3.5226 -3.12345,3.5226 -1.24848,0 -2.42222,1.02093 -10.71123,9.31667 -5.12001,5.12416 -9.60484,9.31666 -9.96627,9.31666 -0.36145,0 -5.33412,-4.68 -11.0504,-10.4 z m -30.42085,-7.20693 c 0.15047,-0.15047 -0.012,-0.68136 -0.36111,-1.17975 -0.54714,-0.78114 -0.6347,-6.90119 -0.6347,-44.35974 0,-36.85323 -0.0917,-43.45358 -0.60364,-43.45358 -0.332,0 -0.722,0.30844 -0.86667,0.68544 -0.14466,0.37699 -0.26303,20.01067 -0.26303,43.6304 l 0,42.94497 0.94221,1.00293 c 0.98269,1.04603 1.32893,1.18735 1.78694,0.72933 z m 26.24645,-20.33714 c 14.54786,-15.05677 18.34151,-19.21832 18.74402,-20.5618 0.60744,-2.02744 2.32725,-3.77172 4.43237,-4.49543 1.17865,-0.4052 7.00022,-6.18122 24.31434,-24.12407 21.35122,-22.12655 22.76471,-23.68681 22.76582,-25.12963 8.7e-4,-0.84609 -0.23282,-1.77234 -0.51882,-2.05834 -0.38742,-0.38742 -5.01979,-0.52 -18.16904,-0.52 -15.46681,0 -17.73325,0.0842 -18.33,0.68096 -0.83239,0.83238 -0.91562,4.21817 -0.11993,4.87854 0.30857,0.25608 2.01482,0.52371 3.79167,0.59473 l 3.23064,0.12911 0.1262,2.84017 0.1262,2.84018 -15.50954,15.79459 c -8.53024,8.68703 -18.12856,18.4752 -21.3296,21.7515 -3.27992,3.35702 -6.16566,5.95689 -6.61191,5.95689 -0.75891,0 -0.78719,-1.02266 -0.67993,-24.59167 l 0.11191,-24.59166 3.03333,-0.11021 c 5.02349,-0.18252 4.98334,-0.15753 4.98334,-3.10169 0,-1.92131 -0.16806,-2.60987 -0.68544,-2.80841 -0.377,-0.14467 -8.75514,-0.26303 -18.61809,-0.26303 -17.28598,0 -17.94882,0.0302 -18.38122,0.83818 -0.57595,1.07617 -0.57595,3.31414 0,4.39031 0.3811,0.7121 0.92819,0.83818 3.63697,0.83818 2.50765,0 3.24455,0.14635 3.45142,0.68544 0.14466,0.37699 0.26303,20.42949 0.26303,44.56111 0,24.13162 0.13,44.00567 0.28888,44.16456 0.15889,0.15889 1.89205,0.28889 3.85146,0.28889 l 3.56256,0 18.23936,-18.8774 z m 19.75617,15.87356 c 0.13728,-0.22211 -0.2883,-0.46586 -0.94571,-0.54167 -0.71204,-0.0821 -1.25222,-0.43797 -1.33605,-0.8802 -0.0774,-0.4083 1.43217,-5.26457 3.35462,-10.79171 1.92246,-5.52714 3.49537,-10.31182 3.49537,-10.63263 0,-0.45347 -1.06083,-0.58328 -4.76667,-0.58328 -4.58118,0 -6.19218,0.47323 -3.46666,1.01833 1.0249,0.20498 1.3,0.48731 1.3,1.33419 0,0.5908 -1.56,5.54129 -3.46667,11.00109 -1.90667,5.45979 -3.46667,10.05128 -3.46667,10.20331 0,0.44231 9.02275,0.31866 9.29844,-0.12743 z m 14.77967,-0.69138 c -0.81787,-0.61867 -0.78222,-0.8134 1.44526,-7.89454 1.2561,-3.99314 2.5642,-7.69899 2.90688,-8.23524 0.58039,-0.90822 0.93038,-0.975 5.11002,-0.975 3.37326,0 4.61528,0.15463 5.00398,0.62298 0.46335,0.55832 -1.03648,6.0461 -4.5374,16.60202 -0.13581,0.40948 0.79519,0.5294 3.81509,0.4914 2.1971,-0.0276 3.67008,-0.13625 3.27329,-0.24134 -0.39679,-0.10508 -0.82114,-0.45091 -0.94301,-0.76849 -0.22075,-0.57526 3.93645,-14.01248 4.88147,-15.77828 0.45864,-0.85697 0.84113,-0.92829 4.9785,-0.92829 3.27339,0 4.61498,0.1606 4.97605,0.59566 0.38106,0.45916 -0.0663,2.37088 -1.9522,8.34167 -1.34561,4.2603 -2.54006,7.98975 -2.65433,8.28767 -0.15846,0.41314 0.85717,0.53355 4.28026,0.50746 3.53557,-0.027 4.23514,-0.12658 3.29637,-0.46945 -0.65542,-0.23938 -1.19167,-0.6521 -1.19167,-0.91717 0,-0.26506 1.30061,-4.74671 2.89024,-9.95921 3.59026,-11.77269 3.59299,-11.74503 -1.17747,-11.92811 -3.12892,-0.12008 -3.30024,-0.0748 -4.51365,1.19166 -1.13615,1.18589 -1.52459,1.31649 -3.91579,1.31649 -2.3838,0 -2.78153,-0.13258 -3.9,-1.3 -1.09487,-1.14281 -1.54027,-1.3 -3.68333,-1.3 -2.14306,0 -2.58846,0.15719 -3.68333,1.3 -1.11847,1.16742 -1.5162,1.3 -3.9,1.3 -2.38381,0 -2.78154,-0.13258 -3.9,-1.3 -1.19939,-1.25189 -1.38682,-1.3 -5.06441,-1.3 -2.25706,0 -3.81893,0.17722 -3.81893,0.43333 0,0.23833 0.26863,0.43333 0.59695,0.43333 1.83644,0 1.66408,1.05631 -1.87738,11.50585 -1.91743,5.65762 -3.48623,10.45328 -3.48623,10.65703 0,0.20375 1.70625,0.36426 3.79166,0.35668 3.42329,-0.0124 3.7102,-0.0754 2.95311,-0.64811 z m -6.79016,-32.03672 c 0.3369,-0.70507 0.63118,-1.97257 0.65397,-2.81666 0.0407,-1.50787 0.009,-1.53709 -1.83564,-1.66971 -1.15293,-0.0829 -2.26281,0.11777 -2.87694,0.52016 -1.0238,0.67082 -2.57724,4.38767 -2.13372,5.10529 0.1356,0.21941 1.44653,0.34131 2.91317,0.27089 2.47397,-0.11878 2.71087,-0.22064 3.27916,-1.40997 z m -17.92962,-18.54306 c 30.36326,-30.66136 29.24167,-29.46239 29.24167,-31.25914 0,-0.90095 -0.14625,-1.56799 -0.325,-1.48233 -0.17875,0.0857 -8.84837,8.73067 -19.26583,19.21112 -16.64876,16.74942 -19.07404,19.35837 -20.04166,21.55937 -1.20854,2.74902 -1.25195,2.91265 -0.77265,2.91265 0.1805,0 5.20406,-4.92375 11.16347,-10.94167 z m 22.34848,-34.91666 c -0.26041,-0.48658 -0.47347,-2.00341 -0.47347,-3.37073 0,-4.351 -1.3614,-4.07094 19.78971,-4.07094 13.73271,0 18.56944,0.13368 19.20535,0.53081 1.21284,0.75744 2.07411,-0.13307 1.08518,-1.122 -0.63532,-0.63532 -2.74299,-0.70881 -20.32737,-0.70881 -23.10741,0 -21.25813,-0.45236 -21.25813,5.2 0,2.72894 0.16133,3.56654 0.82905,4.30438 1.00577,1.11135 1.85215,0.54986 1.14968,-0.76271 z m -66.28662,0.095 c -0.0897,-0.45101 -0.25057,-2.10029 -0.35743,-3.66506 -0.14792,-2.16628 -0.0408,-2.97237 0.44889,-3.3788 0.49396,-0.40996 5.26334,-0.5039 20.56082,-0.40497 15.72029,0.10166 19.87413,0.0155 19.71109,-0.4089 -0.49317,-1.2837 -3.46887,-1.46495 -21.84686,-1.33066 -22.01302,0.16084 -20.30336,-0.305 -20.30336,5.53219 0,2.35737 0.19479,3.94096 0.52542,4.27159 0.72845,0.72845 1.45799,0.37255 1.26143,-0.61539 z"
       style="fill:#a6a6a6" />
    <path
       id="path6069"
       d="m 169.11911,641.05934 c -5.71675,-5.72047 -10.56327,-10.34445 -10.77006,-10.27552 -0.20679,0.0689 -2.20174,1.97056 -4.43323,4.22584 l -4.05725,4.10052 -6.23458,0.13932 -6.23457,0.13933 -2.65973,-2.21345 -2.65974,-2.21346 0,-15.4478 0,-15.44779 -7.36666,-7.41039 c -4.05167,-4.07572 -7.36667,-7.68881 -7.36667,-8.02909 0,-0.34028 3.31825,-3.95664 7.37388,-8.03634 l 7.37388,-7.41765 -0.11555,-11.66467 -0.11554,-11.66467 -1.36865,-0.13283 c -1.00121,-0.0972 -1.96095,-0.75912 -3.575,-2.46573 l -2.20635,-2.3329 0,-5.01071 0,-5.01071 2.087,-2.16523 2.087,-2.16523 21.11158,0 c 18.93386,0 21.22473,0.0742 22.20857,0.71878 1.09212,0.71559 1.11084,0.70502 4.21994,-2.38333 1.71762,-1.70616 3.40782,-3.10211 3.75598,-3.10211 0.34817,0 2.80065,2.16146 5.44996,4.80326 l 4.81692,4.80326 2.41993,-2.41993 2.41993,-2.41993 21.06349,0 21.06349,0 2.1481,2.0093 2.1481,2.0093 0,5.43159 0,5.43159 -9.96666,10.07197 c -5.48167,5.53957 -9.96667,10.33391 -9.96667,10.65409 0,0.32017 4.7775,5.35665 10.61667,11.19216 5.83916,5.83552 10.61666,10.90647 10.61666,11.26877 0,0.36231 -2.925,3.57886 -6.5,7.1479 -3.575,3.56904 -6.5,6.73535 -6.5,7.03625 0,0.40337 1.11643,0.54708 4.24992,0.54708 l 4.24992,0 1.38341,1.96267 c 0.76088,1.07947 1.38342,2.36081 1.38342,2.84743 0,0.48662 -1.0725,4.34989 -2.38333,8.58504 -1.31084,4.23515 -2.38334,7.99251 -2.38334,8.34968 0,0.35717 0.48604,0.87086 1.08009,1.14152 l 1.08009,0.49213 -1.04948,2.89127 c -0.57721,1.5902 -1.307,3.05456 -1.62175,3.25413 -0.31475,0.19958 -3.55215,0.36585 -7.19421,0.3695 -5.69529,0.006 -6.65945,-0.0911 -6.89003,-0.69201 -0.14746,-0.38426 0.87161,-4.29805 2.26458,-8.69732 2.67704,-8.45459 2.69287,-8.79076 0.41405,-8.79076 -1.46865,0 -1.76874,0.48068 -3.43416,5.50095 -1.60943,4.8515 -1.6699,5.75244 -0.3861,5.75244 0.83131,0 0.56876,1.71545 -0.70234,4.58897 l -0.84534,1.91103 -6.9577,0 c -7.8947,0 -7.48876,0.24423 -6.23022,-3.74832 0.40012,-1.26931 0.59631,-2.439 0.43599,-2.59932 -0.52436,-0.52436 -1.98342,1.21162 -2.73918,3.25904 -1.00439,2.72103 -1.3491,3.0886 -2.89648,3.0886 -1.1568,0 -2.56736,1.22997 -10.68461,9.31667 -5.14352,5.12416 -9.64018,9.31666 -9.99258,9.31666 -0.3524,0 -5.31805,-4.68038 -11.03479,-10.40084 z m -29.8392,-6.71582 c 0.19228,-0.50107 1.02552,-0.65 3.63649,-0.65 2.9934,0 3.53884,-0.12772 4.69296,-1.09885 0.71824,-0.60436 8.77695,-8.80278 17.90824,-18.21871 13.15572,-13.5658 16.88634,-17.66456 17.97033,-19.74366 1.7299,-3.31795 3.22914,-4.88477 5.2619,-5.49909 1.29548,-0.39151 5.55681,-4.57524 22.18679,-21.78278 25.65869,-26.54983 25.13333,-25.96138 25.13333,-28.15121 0,-1.22729 0.18231,-1.7057 0.65,-1.7057 0.96745,0 0.81849,-2.046 -0.18818,-2.58476 -0.54196,-0.29005 -7.69154,-0.44858 -20.2304,-0.44858 -23.1596,0 -21.39809,-0.45823 -21.39809,5.56642 0,2.81804 0.16828,3.86795 0.71717,4.47446 0.98326,1.0865 2.31617,1.03287 2.31617,-0.0932 0,-0.82147 0.22516,-0.87643 3.107,-0.75834 2.00432,0.0821 3.17057,0.31956 3.28611,0.66899 0.10457,0.31624 -0.19316,0.54166 -0.71541,0.54166 -0.57698,0 -0.98505,0.36071 -1.14955,1.01611 -0.14026,0.55885 -8.70768,9.45438 -19.03871,19.76785 -16.6895,16.66111 -18.91307,19.04004 -19.94411,21.33751 -0.63823,1.42216 -1.06284,2.95894 -0.94356,3.41505 0.11927,0.45611 0.0651,0.92311 -0.12049,1.03778 -0.18554,0.11467 -0.45759,-0.51888 -0.60454,-1.4079 -0.3465,-2.09608 -0.35931,-44.88034 -0.0137,-45.78095 0.21024,-0.54786 0.97567,-0.68545 3.81334,-0.68545 2.18357,0 3.75048,-0.20018 4.0703,-0.52 0.286,-0.286 0.52,-1.651 0.52,-3.03333 0,-1.85939 0.15706,-2.51333 0.60364,-2.51333 1.04563,0 1.1422,-1.25459 0.16653,-2.16357 -0.90635,-0.84438 -1.50914,-0.86977 -20.64897,-0.86977 -19.64582,0 -19.71889,0.003 -20.71829,0.94221 -0.88831,0.83453 -1.00292,1.34346 -1.00292,4.45358 0,2.47673 0.19876,3.79515 0.67457,4.47446 0.79819,1.13958 1.7265,1.2416 2.28105,0.25068 0.29486,-0.52689 1.09173,-0.7302 3.06,-0.78073 2.95518,-0.0759 4.37395,0.39505 2.56105,0.85007 -0.64546,0.16199 -1.23581,0.68458 -1.37981,1.22143 -0.13844,0.51607 -0.25436,20.17959 -0.25761,43.69672 l -0.006,42.75842 1.12186,1.33325 c 1.21743,1.44684 2.2274,1.71008 2.62144,0.68325 z m 46.00825,-4.65834 c 0.10835,-0.56533 -0.14193,-0.75833 -0.98337,-0.75833 -0.62079,0 -1.22378,-0.24775 -1.33997,-0.55055 -0.1162,-0.30281 1.43884,-5.31186 3.45563,-11.13124 2.01679,-5.81938 3.56898,-10.73913 3.44929,-10.93278 -0.11968,-0.19365 -2.42472,-0.3521 -5.1223,-0.3521 -3.93649,0 -5.0166,0.13484 -5.47156,0.68303 -0.46979,0.56606 -0.46033,0.75044 0.0553,1.0767 0.34217,0.21652 1.06088,0.39666 1.59713,0.40031 0.58491,0.004 0.975,0.27284 0.975,0.672 0,0.36595 -1.56,5.16057 -3.46666,10.65469 -1.90667,5.49413 -3.46667,10.2709 -3.46667,10.61505 0,0.51681 0.88539,0.60448 5.08643,0.50364 4.4427,-0.10663 5.10483,-0.21806 5.23178,-0.88042 z m 15.47261,0.0962 c 0.15141,-0.24499 -0.1203,-0.78124 -0.6038,-1.19167 -0.87626,-0.74382 -0.87144,-0.7699 1.4959,-8.09491 1.30625,-4.04178 2.61322,-7.5038 2.90437,-7.69338 0.29116,-0.18958 2.38188,-0.29516 4.64604,-0.23464 3.7439,0.10008 4.12771,0.18852 4.23858,0.97671 0.067,0.47666 -0.9567,4.26353 -2.275,8.41526 -1.3183,4.15172 -2.39691,7.71047 -2.39691,7.90833 0,0.50289 8.55797,0.45287 8.8699,-0.0519 0.13991,-0.22638 -0.14109,-0.62324 -0.62443,-0.88191 -0.48334,-0.25868 -0.8788,-0.80453 -0.8788,-1.21299 0,-0.9732 4.32257,-14.01629 4.87782,-14.71851 0.28829,-0.36461 1.76105,-0.54167 4.5055,-0.54167 3.34958,0 4.12502,0.12461 4.34514,0.69822 0.14736,0.38402 -0.83739,4.23527 -2.18835,8.55833 -1.35096,4.32307 -2.45264,8.01297 -2.4482,8.19978 0.0142,0.597 9.23249,0.15925 9.43395,-0.44799 0.0988,-0.29792 -0.10518,-0.54167 -0.45336,-0.54167 -1.67294,0 -1.52904,-1.0627 1.46693,-10.83333 2.96847,-9.68098 2.98396,-9.75767 2.1884,-10.83334 -0.72033,-0.97393 -1.14795,-1.09588 -4.23483,-1.20763 -3.3293,-0.12053 -3.47189,-0.0843 -4.69437,1.19167 -1.07049,1.11735 -1.58326,1.31596 -3.3975,1.31596 -1.75622,0 -2.40039,-0.2315 -3.61734,-1.3 -1.30883,-1.14917 -1.79625,-1.3 -4.20113,-1.3 -2.45713,0 -2.8411,0.12586 -3.966,1.3 -1.06668,1.11338 -1.56434,1.3 -3.46666,1.3 -1.90233,0 -2.39998,-0.18662 -3.46667,-1.3 -1.20546,-1.25822 -1.37237,-1.3 -5.19441,-1.3 -2.49361,0 -4.14056,0.19164 -4.46892,0.52 -0.77046,0.77046 -0.64153,1.08888 0.56333,1.39128 0.67743,0.17003 1.08333,0.57871 1.08333,1.09076 0,0.45037 -1.54402,5.30513 -3.43116,10.78835 -1.88715,5.48323 -3.31715,10.08352 -3.17778,10.22289 0.44908,0.44908 8.27867,0.27356 8.56643,-0.19205 z m -8.31039,-31.54435 c 1.08931,-1.20367 2.09028,-4.88621 1.51618,-5.57796 -0.65184,-0.78542 -4.7068,-0.7269 -5.86544,0.0847 -1.02914,0.72083 -2.5162,4.6557 -2.13495,5.64922 0.38422,1.00125 5.54939,0.87705 6.48421,-0.15591 z"
       style="fill:#5dec8c" />
    <path
       id="path6067"
       d="m 169.11911,641.05934 c -5.71675,-5.72047 -10.56327,-10.34445 -10.77006,-10.27552 -0.20679,0.0689 -2.20174,1.97056 -4.43323,4.22584 l -4.05725,4.10052 -6.23458,0.13932 -6.23457,0.13933 -2.65973,-2.21345 -2.65974,-2.21346 0,-15.4478 0,-15.44779 -7.36666,-7.41039 c -4.05167,-4.07572 -7.36667,-7.68881 -7.36667,-8.02909 0,-0.34028 3.31825,-3.95664 7.37388,-8.03634 l 7.37388,-7.41765 -0.11555,-11.66467 -0.11554,-11.66467 -1.36865,-0.13283 c -1.00121,-0.0972 -1.96095,-0.75912 -3.575,-2.46573 l -2.20635,-2.3329 0,-5.01071 0,-5.01071 2.087,-2.16523 2.087,-2.16523 21.11158,0 c 18.93386,0 21.22473,0.0742 22.20857,0.71878 1.09212,0.71559 1.11084,0.70502 4.21994,-2.38333 1.71762,-1.70616 3.40782,-3.10211 3.75598,-3.10211 0.34817,0 2.80065,2.16146 5.44996,4.80326 l 4.81692,4.80326 2.41993,-2.41993 2.41993,-2.41993 21.06349,0 21.06349,0 2.1481,2.0093 2.1481,2.0093 0,5.43159 0,5.43159 -9.96666,10.07197 c -5.48167,5.53957 -9.96667,10.33391 -9.96667,10.65409 0,0.32017 4.7775,5.35665 10.61667,11.19216 5.83916,5.83552 10.61666,10.90647 10.61666,11.26877 0,0.36231 -2.925,3.57886 -6.5,7.1479 -3.575,3.56904 -6.5,6.73535 -6.5,7.03625 0,0.40337 1.11643,0.54708 4.24992,0.54708 l 4.24992,0 1.38341,1.96267 c 0.76088,1.07947 1.38342,2.36081 1.38342,2.84743 0,0.48662 -1.0725,4.34989 -2.38333,8.58504 -1.31084,4.23515 -2.38334,7.99251 -2.38334,8.34968 0,0.35717 0.48604,0.87086 1.08009,1.14152 l 1.08009,0.49213 -1.04948,2.89127 c -0.57721,1.5902 -1.307,3.05456 -1.62175,3.25413 -0.31475,0.19958 -3.55215,0.36585 -7.19421,0.3695 -5.69529,0.006 -6.65945,-0.0911 -6.89003,-0.69201 -0.14746,-0.38426 0.87161,-4.29805 2.26458,-8.69732 2.67704,-8.45459 2.69287,-8.79076 0.41405,-8.79076 -1.46865,0 -1.76874,0.48068 -3.43416,5.50095 -1.60943,4.8515 -1.6699,5.75244 -0.3861,5.75244 0.83131,0 0.56876,1.71545 -0.70234,4.58897 l -0.84534,1.91103 -6.9577,0 c -7.8947,0 -7.48876,0.24423 -6.23022,-3.74832 0.40012,-1.26931 0.59631,-2.439 0.43599,-2.59932 -0.52436,-0.52436 -1.98342,1.21162 -2.73918,3.25904 -1.00439,2.72103 -1.3491,3.0886 -2.89648,3.0886 -1.1568,0 -2.56736,1.22997 -10.68461,9.31667 -5.14352,5.12416 -9.64018,9.31666 -9.99258,9.31666 -0.3524,0 -5.31805,-4.68038 -11.03479,-10.40084 z m -29.8392,-6.71582 c 0.19228,-0.50107 1.02552,-0.65 3.63649,-0.65 2.9934,0 3.53884,-0.12772 4.69296,-1.09885 0.71824,-0.60436 8.77695,-8.80278 17.90824,-18.21871 13.15572,-13.5658 16.88634,-17.66456 17.97033,-19.74366 1.7299,-3.31795 3.22914,-4.88477 5.2619,-5.49909 1.29548,-0.39151 5.55681,-4.57524 22.18679,-21.78278 25.65869,-26.54983 25.13333,-25.96138 25.13333,-28.15121 0,-1.22729 0.18231,-1.7057 0.65,-1.7057 0.96745,0 0.81849,-2.046 -0.18818,-2.58476 -0.54196,-0.29005 -7.69154,-0.44858 -20.2304,-0.44858 -23.1596,0 -21.39809,-0.45823 -21.39809,5.56642 0,2.81804 0.16828,3.86795 0.71717,4.47446 0.98326,1.0865 2.31617,1.03287 2.31617,-0.0932 0,-0.82147 0.22516,-0.87643 3.107,-0.75834 2.00432,0.0821 3.17057,0.31956 3.28611,0.66899 0.10457,0.31624 -0.19316,0.54166 -0.71541,0.54166 -0.57698,0 -0.98505,0.36071 -1.14955,1.01611 -0.14026,0.55885 -8.70768,9.45438 -19.03871,19.76785 -16.6895,16.66111 -18.91307,19.04004 -19.94411,21.33751 -0.63823,1.42216 -1.06284,2.95894 -0.94356,3.41505 0.11927,0.45611 0.0651,0.92311 -0.12049,1.03778 -0.18554,0.11467 -0.45759,-0.51888 -0.60454,-1.4079 -0.3465,-2.09608 -0.35931,-44.88034 -0.0137,-45.78095 0.21024,-0.54786 0.97567,-0.68545 3.81334,-0.68545 2.18357,0 3.75048,-0.20018 4.0703,-0.52 0.286,-0.286 0.52,-1.651 0.52,-3.03333 0,-1.85939 0.15706,-2.51333 0.60364,-2.51333 1.04563,0 1.1422,-1.25459 0.16653,-2.16357 -0.90635,-0.84438 -1.50914,-0.86977 -20.64897,-0.86977 -19.64582,0 -19.71889,0.003 -20.71829,0.94221 -0.88831,0.83453 -1.00292,1.34346 -1.00292,4.45358 0,2.47673 0.19876,3.79515 0.67457,4.47446 0.79819,1.13958 1.7265,1.2416 2.28105,0.25068 0.29486,-0.52689 1.09173,-0.7302 3.06,-0.78073 2.95518,-0.0759 4.37395,0.39505 2.56105,0.85007 -0.64546,0.16199 -1.23581,0.68458 -1.37981,1.22143 -0.13844,0.51607 -0.25436,20.17959 -0.25761,43.69672 l -0.006,42.75842 1.12186,1.33325 c 1.21743,1.44684 2.2274,1.71008 2.62144,0.68325 z m 46.00825,-4.65834 c 0.10835,-0.56533 -0.14193,-0.75833 -0.98337,-0.75833 -0.62079,0 -1.22378,-0.24775 -1.33997,-0.55055 -0.1162,-0.30281 1.43884,-5.31186 3.45563,-11.13124 2.01679,-5.81938 3.56898,-10.73913 3.44929,-10.93278 -0.11968,-0.19365 -2.42472,-0.3521 -5.1223,-0.3521 -3.93649,0 -5.0166,0.13484 -5.47156,0.68303 -0.46979,0.56606 -0.46033,0.75044 0.0553,1.0767 0.34217,0.21652 1.06088,0.39666 1.59713,0.40031 0.58491,0.004 0.975,0.27284 0.975,0.672 0,0.36595 -1.56,5.16057 -3.46666,10.65469 -1.90667,5.49413 -3.46667,10.2709 -3.46667,10.61505 0,0.51681 0.88539,0.60448 5.08643,0.50364 4.4427,-0.10663 5.10483,-0.21806 5.23178,-0.88042 z m 15.47261,0.0962 c 0.15141,-0.24499 -0.1203,-0.78124 -0.6038,-1.19167 -0.87626,-0.74382 -0.87144,-0.7699 1.4959,-8.09491 1.30625,-4.04178 2.61322,-7.5038 2.90437,-7.69338 0.29116,-0.18958 2.38188,-0.29516 4.64604,-0.23464 3.7439,0.10008 4.12771,0.18852 4.23858,0.97671 0.067,0.47666 -0.9567,4.26353 -2.275,8.41526 -1.3183,4.15172 -2.39691,7.71047 -2.39691,7.90833 0,0.50289 8.55797,0.45287 8.8699,-0.0519 0.13991,-0.22638 -0.14109,-0.62324 -0.62443,-0.88191 -0.48334,-0.25868 -0.8788,-0.80453 -0.8788,-1.21299 0,-0.9732 4.32257,-14.01629 4.87782,-14.71851 0.28829,-0.36461 1.76105,-0.54167 4.5055,-0.54167 3.34958,0 4.12502,0.12461 4.34514,0.69822 0.14736,0.38402 -0.83739,4.23527 -2.18835,8.55833 -1.35096,4.32307 -2.45264,8.01297 -2.4482,8.19978 0.0142,0.597 9.23249,0.15925 9.43395,-0.44799 0.0988,-0.29792 -0.10518,-0.54167 -0.45336,-0.54167 -1.67294,0 -1.52904,-1.0627 1.46693,-10.83333 2.96847,-9.68098 2.98396,-9.75767 2.1884,-10.83334 -0.72033,-0.97393 -1.14795,-1.09588 -4.23483,-1.20763 -3.3293,-0.12053 -3.47189,-0.0843 -4.69437,1.19167 -1.07049,1.11735 -1.58326,1.31596 -3.3975,1.31596 -1.75622,0 -2.40039,-0.2315 -3.61734,-1.3 -1.30883,-1.14917 -1.79625,-1.3 -4.20113,-1.3 -2.45713,0 -2.8411,0.12586 -3.966,1.3 -1.06668,1.11338 -1.56434,1.3 -3.46666,1.3 -1.90233,0 -2.39998,-0.18662 -3.46667,-1.3 -1.20546,-1.25822 -1.37237,-1.3 -5.19441,-1.3 -2.49361,0 -4.14056,0.19164 -4.46892,0.52 -0.77046,0.77046 -0.64153,1.08888 0.56333,1.39128 0.67743,0.17003 1.08333,0.57871 1.08333,1.09076 0,0.45037 -1.54402,5.30513 -3.43116,10.78835 -1.88715,5.48323 -3.31715,10.08352 -3.17778,10.22289 0.44908,0.44908 8.27867,0.27356 8.56643,-0.19205 z m -8.31039,-31.54435 c 1.08931,-1.20367 2.09028,-4.88621 1.51618,-5.57796 -0.65184,-0.78542 -4.7068,-0.7269 -5.86544,0.0847 -1.02914,0.72083 -2.5162,4.6557 -2.13495,5.64922 0.38422,1.00125 5.54939,0.87705 6.48421,-0.15591 z M 128.09309,584.1298 c 2.904,-2.97518 3.54353,-3.87456 3.54353,-4.98333 0,-0.74413 -0.12664,-1.35295 -0.28143,-1.35295 -0.41403,0 -9.68524,9.20559 -9.68524,9.6167 0,0.19248 0.64791,0.34996 1.4398,0.34996 1.2343,0 1.94558,-0.51817 4.98334,-3.63038 z m 50.29864,-50.3347 c 1.36376,-1.55323 1.81342,-3.66825 0.77989,-3.66825 -0.31074,0 -1.2129,0.66848 -2.00479,1.4855 -1.14557,1.18192 -1.38265,1.71326 -1.16009,2.6 0.37137,1.47966 0.78266,1.40771 2.38499,-0.41725 z"
       style="fill:#676767" />
    <path
       id="path6065"
       d="m 169.55328,640.62685 c -5.71627,-5.72 -10.6911,-10.4 -11.05517,-10.4 -0.36406,0 -2.50674,1.8525 -4.76149,4.11667 l -4.09955,4.11666 -6.34189,0 -6.34189,0 -2.225,-1.80996 -2.225,-1.80995 0,-15.60364 0,-15.60364 -7.4588,-7.50307 -7.45881,-7.50307 7.45881,-7.50307 7.4588,-7.50307 0,-11.52816 c 0,-6.34048 -0.11837,-11.8366 -0.26303,-12.21359 -0.16099,-0.41953 -0.78028,-0.68544 -1.59633,-0.68544 -1.03251,0 -1.80414,-0.48849 -3.42031,-2.16523 l -2.087,-2.16523 0,-4.78667 0,-4.78667 2.0093,-2.1481 2.0093,-2.1481 21.12097,0 c 18.24555,0 21.19442,0.0885 21.66043,0.65 0.95802,1.15434 1.87056,0.70866 5.08337,-2.48271 l 3.15376,-3.1327 4.87988,4.86604 c 2.68393,2.67632 5.0909,4.86603 5.34882,4.86603 0.25792,0 1.54145,-1.0725 2.85228,-2.38333 l 2.38334,-2.38333 20.85833,0 20.85833,0 1.95761,1.87572 1.95761,1.87572 0,5.18085 0,5.18086 -9.96667,10.23934 c -5.48166,5.63163 -9.96666,10.58846 -9.96666,11.01517 0,0.43489 4.70335,5.49299 10.70252,11.50977 l 10.70253,10.73392 -1.06086,1.12982 c -0.58347,0.6214 -3.66191,3.74318 -6.84098,6.93729 -3.17907,3.19411 -5.69823,6.05438 -5.59814,6.35617 0.12707,0.38314 1.50353,0.58587 4.5619,0.6719 l 4.37992,0.1232 1.32655,1.80383 c 0.72961,0.99211 1.32656,2.10711 1.32656,2.47779 0,0.37067 -1.15835,4.47006 -2.5741,9.10977 -2.5996,8.51943 -2.70732,9.54554 -1.00201,9.54554 0.79318,0 0.53398,1.71228 -0.63543,4.1976 l -0.77751,1.6524 -6.61473,0.11967 c -5.07294,0.0918 -6.66448,-0.01 -6.82819,-0.43662 -0.11741,-0.30596 0.86062,-3.96731 2.17339,-8.13634 1.31278,-4.16902 2.388,-7.91758 2.38939,-8.33012 0.003,-0.94587 -1.89162,-1.46181 -3.41667,-0.93033 -0.93969,0.32748 -1.36544,1.06996 -2.51904,4.39306 -0.76352,2.19944 -1.51872,4.69461 -1.67822,5.54482 -0.25097,1.33777 -0.16619,1.57821 0.62989,1.78639 1.13479,0.29675 1.13465,0.36784 -0.007,3.35092 l -0.92679,2.42189 -6.65652,0 c -3.66109,0 -6.65653,-0.11598 -6.65653,-0.25773 0,-0.14175 0.41365,-1.6196 0.91923,-3.28411 0.57229,-1.88415 0.76583,-3.17977 0.51278,-3.43282 -0.66762,-0.66761 -3.30726,2.36366 -4.15816,4.77507 -0.66275,1.87819 -0.94021,2.19959 -1.89886,2.19959 -1.84007,0 -3.42,1.31377 -12.23878,10.17707 -4.62759,4.65094 -8.52911,8.45626 -8.67006,8.45626 -0.14094,0 -4.93321,-4.68 -10.64949,-10.4 z m -20.05806,-6.60833 c 5.60701,-5.13987 26.75269,-27.25033 27.45567,-28.70834 0.48616,-1.00831 1.19824,-1.79561 1.70239,-1.88223 1.40389,-0.24121 4.11681,-3.12889 4.1156,-4.38071 -0.002,-1.72943 2.56556,-7.06497 3.92597,-8.15941 0.82813,-0.66623 2.13421,-1.09796 4.00176,-1.32279 l 2.77238,-0.33376 13.15904,-13.41055 c 7.23747,-7.3758 17.24987,-17.54869 22.24976,-22.60643 l 9.09072,-9.19587 0.1786,-3.80413 c 0.1599,-3.40588 0.0799,-3.92886 -0.76406,-4.99578 l -0.94267,-1.19167 -19.92158,0 -19.92158,0 -1.06363,1.06363 c -0.9733,0.9733 -1.06364,1.39825 -1.06364,5.00304 0,3.60478 0.0903,4.02973 1.06364,5.00303 0.87355,0.87355 1.49307,1.06363 3.46667,1.06363 1.66423,0 2.40302,0.17062 2.40302,0.55497 0,0.51005 -34.31742,34.57825 -35.1615,34.90614 -0.20451,0.0794 -0.37183,-7.84199 -0.37183,-17.6032 l 0,-17.74764 2.2495,-0.21615 c 1.74598,-0.16777 2.47346,-0.47651 3.25,-1.3793 0.88252,-1.02599 1.0005,-1.61647 1.0005,-5.00753 0,-6.09817 1.81243,-5.64062 -22.34365,-5.64062 l -20.06011,0 -0.89812,1.14177 c -0.75212,0.95617 -0.89812,1.75396 -0.89812,4.9078 0,4.69277 0.62761,5.52301 4.33334,5.73242 l 2.38333,0.13468 0.21667,43.69592 0.21666,43.69593 1.21583,1.04574 c 1.1364,0.97742 1.54928,1.04574 6.31947,1.04574 l 5.10364,0 1.53633,-1.40833 z m 36.31286,-3.80063 c 0.57301,-1.07069 0.2278,-1.72437 -0.91064,-1.72437 -0.47008,0 -0.96619,-0.29057 -1.10247,-0.6457 -0.13627,-0.35513 1.33234,-5.18606 3.2636,-10.73539 1.93126,-5.54933 3.51138,-10.42627 3.51138,-10.83764 0,-0.66965 -0.58415,-0.74794 -5.58028,-0.74794 -4.34954,0 -5.69543,0.13877 -6.10244,0.62918 -0.90802,1.09409 -0.36018,2.1746 1.17794,2.32328 0.77263,0.0747 1.40478,0.21277 1.40478,0.30686 0,0.0941 -1.66107,4.96957 -3.69128,10.8344 -2.03021,5.86482 -3.5787,10.84548 -3.44109,11.06814 0.1376,0.22264 2.66931,0.40481 5.62603,0.40481 4.95068,0 5.41291,-0.0693 5.84447,-0.87563 z m 14.75702,0.42705 c 1.01617,-0.54384 1.1026,-1.95723 0.14222,-2.32577 -0.84531,-0.32437 -0.79967,-0.53881 1.87637,-8.81732 l 1.99608,-6.175 4.26176,0 c 2.34396,0 4.26175,0.14889 4.26175,0.33087 0,0.18198 -1.0725,3.70295 -2.38333,7.82439 -2.58238,8.11934 -2.73343,8.95101 -1.69789,9.34838 1.13684,0.43624 7.54432,0.29543 8.44304,-0.18555 1.10246,-0.59002 1.07439,-1.98857 -0.0458,-2.28151 -1.07,-0.27981 -1.06095,-0.32505 1.75079,-8.75325 l 2.0239,-6.06666 4.18797,-0.12403 c 2.30339,-0.0682 4.1843,0.0293 4.17981,0.21667 -0.005,0.18738 -1.15693,3.94819 -2.56096,8.35736 -1.82108,5.71883 -2.42457,8.17192 -2.10544,8.55833 0.60589,0.73362 9.05724,0.75233 9.7879,0.0217 0.81119,-0.81119 0.61229,-1.99231 -0.38903,-2.31012 -1.11685,-0.35447 -1.22267,0.17257 2.2368,-11.14033 l 2.74825,-8.98712 -0.89151,-1.19621 c -0.83625,-1.12209 -1.1216,-1.20395 -4.60427,-1.32094 -3.5968,-0.12081 -3.7596,-0.0836 -5.21204,1.19167 -2.08754,1.83288 -4.52911,1.8391 -6.43641,0.0164 -1.23462,-1.17987 -1.62875,-1.3 -4.26512,-1.3 -2.63636,0 -3.0305,0.12013 -4.26512,1.3 -1.0618,1.01471 -1.7528,1.3 -3.14873,1.3 -1.3692,0 -2.13546,-0.30472 -3.26902,-1.3 -1.43063,-1.25611 -1.62462,-1.3 -5.74581,-1.3 -3.19992,0 -4.39562,0.15714 -4.78738,0.62918 -0.76714,0.92436 -0.36888,2.16697 0.74549,2.32596 0.53381,0.0762 0.97214,0.27116 0.97406,0.43333 0.002,0.16218 -1.60682,5.02725 -3.575,10.81127 -3.05156,8.96789 -3.48278,10.57806 -2.92849,10.93504 0.87147,0.56125 7.63953,0.54826 8.69515,-0.0167 z m -8.11985,-31.63675 c 1.42264,-1.11905 2.85224,-5.32455 2.1761,-6.40153 -0.65688,-1.0463 -5.36088,-1.24417 -6.82179,-0.28695 -0.98849,0.64768 -2.42961,3.81621 -2.42961,5.34188 0,2.24076 4.78161,3.15082 7.0753,1.3466 z m -64.63769,-14.59125 c 3.80062,-3.7191 4.63008,-5.04022 4.07411,-6.48905 -0.22256,-0.57998 -1.36542,0.34663 -5.44039,4.41098 -2.83725,2.82986 -5.05999,5.30483 -4.93941,5.49992 0.12058,0.1951 0.72033,0.35473 1.33279,0.35473 0.81545,0 2.14672,-1.01101 4.9729,-3.77658 z m 50.50009,-50.4751 c 1.04858,-1.01631 1.42897,-1.76611 1.42897,-2.81666 0,-0.78742 -0.13887,-1.43166 -0.3086,-1.43166 -0.50285,0 -4.02474,3.60544 -4.02474,4.12022 0,0.47978 0.85891,1.51311 1.25771,1.51311 0.11974,0 0.86074,-0.62325 1.64666,-1.38501 z"
       style="fill:#05992d" />
    <path
       id="path6063"
       d="m 169.55328,640.62685 c -5.71627,-5.72 -10.6911,-10.4 -11.05517,-10.4 -0.36406,0 -2.50674,1.8525 -4.76149,4.11667 l -4.09955,4.11666 -6.34189,0 -6.34189,0 -2.225,-1.80996 -2.225,-1.80995 0,-15.60364 0,-15.60364 -7.4588,-7.50307 -7.45881,-7.50307 7.45881,-7.50307 7.4588,-7.50307 0,-11.52816 c 0,-6.34048 -0.11837,-11.8366 -0.26303,-12.21359 -0.16099,-0.41953 -0.78028,-0.68544 -1.59633,-0.68544 -1.03251,0 -1.80414,-0.48849 -3.42031,-2.16523 l -2.087,-2.16523 0,-4.78667 0,-4.78667 2.0093,-2.1481 2.0093,-2.1481 21.12097,0 c 18.24555,0 21.19442,0.0885 21.66043,0.65 0.95802,1.15434 1.87056,0.70866 5.08337,-2.48271 l 3.15376,-3.1327 4.87988,4.86604 c 2.68393,2.67632 5.0909,4.86603 5.34882,4.86603 0.25792,0 1.54145,-1.0725 2.85228,-2.38333 l 2.38334,-2.38333 20.85833,0 20.85833,0 1.95761,1.87572 1.95761,1.87572 0,5.18085 0,5.18086 -9.96667,10.23934 c -5.48166,5.63163 -9.96666,10.58846 -9.96666,11.01517 0,0.43489 4.70335,5.49299 10.70252,11.50977 l 10.70253,10.73392 -1.06086,1.12982 c -0.58347,0.6214 -3.66191,3.74318 -6.84098,6.93729 -3.17907,3.19411 -5.69823,6.05438 -5.59814,6.35617 0.12707,0.38314 1.50353,0.58587 4.5619,0.6719 l 4.37992,0.1232 1.32655,1.80383 c 0.72961,0.99211 1.32656,2.10711 1.32656,2.47779 0,0.37067 -1.15835,4.47006 -2.5741,9.10977 -2.5996,8.51943 -2.70732,9.54554 -1.00201,9.54554 0.79318,0 0.53398,1.71228 -0.63543,4.1976 l -0.77751,1.6524 -6.61473,0.11967 c -5.07294,0.0918 -6.66448,-0.01 -6.82819,-0.43662 -0.11741,-0.30596 0.86062,-3.96731 2.17339,-8.13634 1.31278,-4.16902 2.388,-7.91758 2.38939,-8.33012 0.003,-0.94587 -1.89162,-1.46181 -3.41667,-0.93033 -0.93969,0.32748 -1.36544,1.06996 -2.51904,4.39306 -0.76352,2.19944 -1.51872,4.69461 -1.67822,5.54482 -0.25097,1.33777 -0.16619,1.57821 0.62989,1.78639 1.13479,0.29675 1.13465,0.36784 -0.007,3.35092 l -0.92679,2.42189 -6.65652,0 c -3.66109,0 -6.65653,-0.11598 -6.65653,-0.25773 0,-0.14175 0.41365,-1.6196 0.91923,-3.28411 0.57229,-1.88415 0.76583,-3.17977 0.51278,-3.43282 -0.66762,-0.66761 -3.30726,2.36366 -4.15816,4.77507 -0.66275,1.87819 -0.94021,2.19959 -1.89886,2.19959 -1.84007,0 -3.42,1.31377 -12.23878,10.17707 -4.62759,4.65094 -8.52911,8.45626 -8.67006,8.45626 -0.14094,0 -4.93321,-4.68 -10.64949,-10.4 z m 15.59325,-2.15988 c 2.50213,-2.51157 4.13478,-4.47007 3.89187,-4.66865 -0.23015,-0.18815 -4.41595,-0.23996 -9.30178,-0.11512 l -8.88334,0.22698 4.30612,4.44167 c 2.36836,2.44292 4.61452,4.44167 4.99146,4.44167 0.37694,0 2.62499,-1.94695 4.99567,-4.32655 z m -35.65131,-4.44845 c 5.60701,-5.13987 26.75269,-27.25033 27.45567,-28.70834 0.48616,-1.00831 1.19824,-1.79561 1.70239,-1.88223 1.40389,-0.24121 4.11681,-3.12889 4.1156,-4.38071 -0.002,-1.72943 2.56556,-7.06497 3.92597,-8.15941 0.82813,-0.66623 2.13421,-1.09796 4.00176,-1.32279 l 2.77238,-0.33376 13.15904,-13.41055 c 7.23747,-7.3758 17.24987,-17.54869 22.24976,-22.60643 l 9.09072,-9.19587 0.1786,-3.80413 c 0.1599,-3.40588 0.0799,-3.92886 -0.76406,-4.99578 l -0.94267,-1.19167 -19.92158,0 -19.92158,0 -1.06363,1.06363 c -0.9733,0.9733 -1.06364,1.39825 -1.06364,5.00304 0,3.60478 0.0903,4.02973 1.06364,5.00303 0.87355,0.87355 1.49307,1.06363 3.46667,1.06363 1.66423,0 2.40302,0.17062 2.40302,0.55497 0,0.51005 -34.31742,34.57825 -35.1615,34.90614 -0.20451,0.0794 -0.37183,-7.84199 -0.37183,-17.6032 l 0,-17.74764 2.2495,-0.21615 c 1.74598,-0.16777 2.47346,-0.47651 3.25,-1.3793 0.88252,-1.02599 1.0005,-1.61647 1.0005,-5.00753 0,-6.09817 1.81243,-5.64062 -22.34365,-5.64062 l -20.06011,0 -0.89812,1.14177 c -0.75212,0.95617 -0.89812,1.75396 -0.89812,4.9078 0,4.69277 0.62761,5.52301 4.33334,5.73242 l 2.38333,0.13468 0.21667,43.69592 0.21666,43.69593 1.21583,1.04574 c 1.1364,0.97742 1.54928,1.04574 6.31947,1.04574 l 5.10364,0 1.53633,-1.40833 z m 28.07473,-22.16131 c 0,-0.54552 -5.98232,5.30947 -10.92724,10.69465 l -3.49699,3.80834 3.57073,3.55832 3.57073,3.55833 3.64138,-10.5792 c 2.00277,-5.81857 3.64139,-10.78676 3.64139,-11.04044 z m 8.23813,18.36068 c 0.57301,-1.07069 0.2278,-1.72437 -0.91064,-1.72437 -0.47008,0 -0.96619,-0.29057 -1.10247,-0.6457 -0.13627,-0.35513 1.33234,-5.18606 3.2636,-10.73539 1.93126,-5.54933 3.51138,-10.42627 3.51138,-10.83764 0,-0.66965 -0.58415,-0.74794 -5.58028,-0.74794 -4.34954,0 -5.69543,0.13877 -6.10244,0.62918 -0.90802,1.09409 -0.36018,2.1746 1.17794,2.32328 0.77263,0.0747 1.40478,0.21277 1.40478,0.30686 0,0.0941 -1.66107,4.96957 -3.69128,10.8344 -2.03021,5.86482 -3.5787,10.84548 -3.44109,11.06814 0.1376,0.22264 2.66931,0.40481 5.62603,0.40481 4.95068,0 5.41291,-0.0693 5.84447,-0.87563 z m 14.75702,0.42705 c 1.01617,-0.54384 1.1026,-1.95723 0.14222,-2.32577 -0.84531,-0.32437 -0.79967,-0.53881 1.87637,-8.81732 l 1.99608,-6.175 4.26176,0 c 2.34396,0 4.26175,0.14889 4.26175,0.33087 0,0.18198 -1.0725,3.70295 -2.38333,7.82439 -2.58238,8.11934 -2.73343,8.95101 -1.69789,9.34838 1.13684,0.43624 7.54432,0.29543 8.44304,-0.18555 1.10246,-0.59002 1.07439,-1.98857 -0.0458,-2.28151 -1.07,-0.27981 -1.06095,-0.32505 1.75079,-8.75325 l 2.0239,-6.06666 4.18797,-0.12403 c 2.30339,-0.0682 4.1843,0.0293 4.17981,0.21667 -0.005,0.18738 -1.15693,3.94819 -2.56096,8.35736 -1.82108,5.71883 -2.42457,8.17192 -2.10544,8.55833 0.60589,0.73362 9.05724,0.75233 9.7879,0.0217 0.81119,-0.81119 0.61229,-1.99231 -0.38903,-2.31012 -1.11685,-0.35447 -1.22267,0.17257 2.2368,-11.14033 l 2.74825,-8.98712 -0.89151,-1.19621 c -0.83625,-1.12209 -1.1216,-1.20395 -4.60427,-1.32094 -3.5968,-0.12081 -3.7596,-0.0836 -5.21204,1.19167 -2.08754,1.83288 -4.52911,1.8391 -6.43641,0.0164 -1.23462,-1.17987 -1.62875,-1.3 -4.26512,-1.3 -2.63636,0 -3.0305,0.12013 -4.26512,1.3 -1.0618,1.01471 -1.7528,1.3 -3.14873,1.3 -1.3692,0 -2.13546,-0.30472 -3.26902,-1.3 -1.43063,-1.25611 -1.62462,-1.3 -5.74581,-1.3 -3.19992,0 -4.39562,0.15714 -4.78738,0.62918 -0.76714,0.92436 -0.36888,2.16697 0.74549,2.32596 0.53381,0.0762 0.97214,0.27116 0.97406,0.43333 0.002,0.16218 -1.60682,5.02725 -3.575,10.81127 -3.05156,8.96789 -3.48278,10.57806 -2.92849,10.93504 0.87147,0.56125 7.63953,0.54826 8.69515,-0.0167 z m -8.11742,-11.97351 c 1.35073,-3.97215 2.40706,-7.26437 2.3474,-7.31605 -0.0597,-0.0517 -0.71256,-0.22322 -1.45091,-0.3812 l -1.34245,-0.28725 -2.47545,7.16889 c -1.36151,3.94289 -2.35464,7.36437 -2.20698,7.60329 0.14766,0.23893 0.80939,0.43441 1.4705,0.43441 1.16749,0 1.27258,-0.20748 3.65789,-7.22209 z m 20.0056,-14.44458 c 1.18039,-1.23206 1.42643,-1.3 4.70789,-1.3 l 3.46241,0 6.67306,-6.60833 c 3.67019,-3.63459 6.87059,-6.9694 7.112,-7.4107 0.37636,-0.68799 -0.75362,-2.00063 -7.92693,-9.20833 -4.60122,-4.62329 -8.66494,-8.40441 -9.03048,-8.40251 -0.36553,0.002 -5.01705,4.48519 -10.3367,9.96285 -7.31495,7.53224 -9.61122,10.15113 -9.42235,10.74619 0.22619,0.71265 -1.3219,6.02506 -2.22714,7.64262 -0.20339,0.36345 -1.03588,1.15223 -1.84997,1.75285 -1.22287,0.90221 -1.96768,1.09203 -4.28486,1.09203 -1.54259,0 -2.69382,0.11088 -2.55829,0.24641 0.13553,0.13553 4.71649,0.23559 10.17992,0.22235 l 9.9335,-0.0241 1.24005,1.29433 c 1.57016,1.6389 2.75378,1.63735 4.32789,-0.006 z m -20.00803,-5.21866 c 1.42264,-1.11905 2.85224,-5.32455 2.1761,-6.40153 -0.65688,-1.0463 -5.36088,-1.24417 -6.82179,-0.28695 -0.98849,0.64768 -2.42961,3.81621 -2.42961,5.34188 0,2.24076 4.78161,3.15082 7.0753,1.3466 z m -60.90149,-10.17208 c 0.0681,-2.58696 0.0119,-4.99514 -0.12483,-5.35152 -0.18409,-0.47972 -0.9194,0.0158 -2.83214,1.90859 -1.42093,1.4061 -2.5835,2.84901 -2.5835,3.20648 0,0.81577 4.36995,5.2869 4.97219,5.08731 0.25686,-0.0851 0.49673,-2.13268 0.56828,-4.85086 z m -7.41035,-0.66725 c 1.39988,-0.52557 4.85301,-3.73519 6.6869,-6.21536 1.314,-1.77705 1.74374,-4.59332 0.70091,-4.59332 -0.30181,0 -2.76704,2.22461 -5.47829,4.94358 -3.45815,3.46799 -4.85054,5.14945 -4.66486,5.63333 0.30884,0.80483 1.06054,0.86806 2.75534,0.23177 z m 114.78063,-0.45305 c 0.38135,-0.61704 -18.59383,-19.62238 -19.34218,-19.37293 -0.30616,0.10206 -0.76559,0.51818 -1.02095,0.92471 -0.39286,0.62545 0.9389,2.13813 8.65653,9.83254 7.26303,7.24119 9.3541,9.09339 10.26609,9.09339 0.6299,0 1.27813,-0.21497 1.44051,-0.47771 z m -45.31076,-38.68343 c 0,-0.2111 -0.6825,-1.13927 -1.51666,-2.06259 -0.83417,-0.92333 -1.51667,-1.99898 -1.51667,-2.39034 0,-0.73294 -8.25069,-9.41526 -9.68976,-10.19668 -0.65788,-0.35723 -1.11684,-0.13477 -2.49166,1.20771 -1.68151,1.64195 -1.68525,1.65332 -1.68792,5.13265 -0.002,2.17613 -0.23562,3.93361 -0.62231,4.67489 -1.1229,2.15256 -3.4697,4.64635 -4.38002,4.65435 -1.83919,0.0162 -1.92833,0.54805 -1.92833,11.50559 0,5.75178 0.13746,10.59524 0.30546,10.76324 0.32579,0.32579 23.52787,-22.64055 23.52787,-23.28882 z m -2.6,-8.59586 c 0,-1.11926 -0.75392,-2.10426 -4.5908,-5.9979 -5.65831,-5.74202 -6.4023,-6.00264 -9.22567,-3.23185 -1.59834,1.56858 -1.85415,2.04635 -1.61209,3.01081 0.55732,2.22054 2.53673,1.66634 3.97376,-1.11256 l 0.5898,-1.14055 5.06781,5.13101 c 2.7873,2.82205 5.23192,5.02958 5.4325,4.90561 0.20058,-0.12396 0.36469,-0.82802 0.36469,-1.56457 z"
       style="fill:#025f15" />
    <path
       id="path6061"
       d="m 169.55328,640.62685 c -5.71627,-5.72 -10.6911,-10.4 -11.05517,-10.4 -0.36406,0 -2.50674,1.8525 -4.76149,4.11667 l -4.09955,4.11666 -6.34189,0 -6.34189,0 -2.225,-1.80996 -2.225,-1.80995 0,-15.60364 0,-15.60364 -7.4588,-7.50307 -7.45881,-7.50307 7.45881,-7.50307 7.4588,-7.50307 0,-11.52816 c 0,-6.34048 -0.11837,-11.8366 -0.26303,-12.21359 -0.15496,-0.40381 -0.77193,-0.68544 -1.50159,-0.68544 -1.41168,0 -3.99361,-2.04658 -4.97419,-3.94281 -0.42658,-0.82493 -0.62786,-2.61616 -0.62786,-5.58757 l 0,-4.37342 2.0093,-2.1481 2.0093,-2.1481 20.87454,0 c 17.68335,0 21.00314,0.0973 21.7157,0.63622 0.46264,0.34991 1.12907,0.64241 1.48097,0.65 0.35189,0.008 2.059,-1.39594 3.79356,-3.11893 l 3.15376,-3.1327 4.87988,4.86604 c 2.68393,2.67632 5.0909,4.86603 5.34882,4.86603 0.25792,0 1.54145,-1.0725 2.85228,-2.38333 l 2.38334,-2.38333 20.87734,0 20.87735,0 1.9386,1.93859 1.93859,1.9386 0,5.10809 0,5.10809 -9.96667,10.2497 c -5.48166,5.63734 -9.96666,10.59862 -9.96666,11.02507 0,0.43429 4.71149,5.50068 10.71042,11.51721 l 10.71042,10.74184 -6.81042,6.85864 c -3.74573,3.77227 -6.81042,7.18615 -6.81042,7.58641 0,0.63486 0.576,0.72776 4.51251,0.72776 l 4.51251,0 1.33749,1.8187 c 0.73562,1.00028 1.33699,2.12153 1.33639,2.49166 -4.3e-4,0.37014 -1.16537,4.46179 -2.58837,9.09258 -2.60633,8.4816 -2.7241,9.56372 -1.04081,9.56372 0.32832,0 0.59678,0.24375 0.59659,0.54167 -8.6e-4,1.03081 -1.59651,4.73954 -2.20518,5.12486 -1.00215,0.6344 -12.94874,0.50331 -13.19745,-0.14482 -0.11502,-0.29972 0.86497,-3.95597 2.17774,-8.125 1.31278,-4.16902 2.388,-7.91758 2.38939,-8.33012 0.003,-0.94522 -1.89049,-1.46168 -3.41667,-0.93182 -0.95291,0.33084 -1.3819,1.10755 -2.72688,4.93725 -1.8687,5.32097 -2.00335,6.48441 -0.78726,6.80243 1.07675,0.28157 1.07515,0.3703 -0.0601,3.337 l -0.92681,2.42189 -6.65652,0 c -3.66109,0 -6.65653,-0.11598 -6.65653,-0.25773 0,-0.14175 0.41365,-1.6196 0.91923,-3.28411 0.61565,-2.02689 0.77546,-3.17014 0.48389,-3.46171 -0.70451,-0.7045 -3.25938,2.23861 -4.12927,4.75676 -0.65755,1.90345 -0.94227,2.24679 -1.86319,2.24679 -1.94403,0 -3.30285,1.11691 -12.08993,9.9376 -4.76444,4.78265 -8.76346,8.69573 -8.88672,8.69573 -0.12326,0 -4.90107,-4.68 -10.61735,-10.4 z m 18.525,0.045 c 3.75375,-3.71332 6.825,-6.92718 6.825,-7.14193 0,-0.21474 -0.975,-0.27496 -2.16666,-0.13383 -1.26367,0.14967 -2.16667,0.0845 -2.16667,-0.1563 0,-0.22711 -0.39,-0.41292 -0.86667,-0.41292 -0.54743,0 -0.86666,-0.28889 -0.86666,-0.78429 0,-0.43136 1.53313,-5.25761 3.40696,-10.725 1.87382,-5.46739 3.32007,-10.18446 3.21389,-10.48238 -0.10619,-0.29791 -0.55532,-0.54166 -0.99806,-0.54166 -0.44273,0 -0.91429,-0.17687 -1.04788,-0.39304 -0.3407,-0.55124 1.49226,-5.34237 2.29491,-5.99863 0.44244,-0.36175 2.27661,-0.54167 5.522,-0.54167 l 4.85951,0 1.81533,1.51667 c 0.99843,0.83417 2.0826,1.51667 2.40926,1.51667 0.32665,0 1.31489,-0.63375 2.19608,-1.40834 1.49641,-1.31538 1.86206,-1.42307 5.54008,-1.6316 3.4217,-0.19401 4.01214,-0.12301 4.50415,0.54166 0.31144,0.42072 0.80102,0.76494 1.08798,0.76494 0.96199,0 15.39296,-14.8671 15.71299,-16.18785 0.28175,-1.16279 -0.28806,-1.82629 -9.39669,-10.94167 -5.33314,-5.33709 -10.02844,-9.70381 -10.434,-9.70381 -0.40555,0 -1.00915,0.38802 -1.34132,0.86226 -0.33218,0.47425 -5.26698,5.66833 -10.96624,11.5424 -8.51625,8.77747 -10.33899,10.86949 -10.23149,11.74307 0.2162,1.75693 -1.63964,6.71599 -3.08514,8.24394 -1.25982,1.33169 -1.49986,1.40833 -4.41066,1.40833 -2.8455,0 -4.11833,0.42857 -4.11833,1.38667 0,0.19066 1.60875,0.34965 3.575,0.3533 1.96625,0.003 3.81882,0.16145 4.11683,0.35067 0.40786,0.25898 -0.37064,2.96114 -3.14872,10.92913 -2.02981,5.82181 -3.596,10.8315 -3.48043,11.13266 0.11557,0.30116 0.61236,0.54757 1.10399,0.54757 0.49162,0 0.98957,0.2494 1.10654,0.55423 0.2808,0.73174 -1.40291,5.59073 -2.08806,6.02592 -0.29433,0.18695 -3.71002,0.3429 -7.59041,0.34655 -5.54983,0.005 -7.10348,-0.11899 -7.28118,-0.58208 -0.12425,-0.32379 1.34437,-5.11128 3.2636,-10.63885 1.91923,-5.52757 3.48951,-10.33265 3.48951,-10.67795 0,-1.45447 -1.49818,-0.23799 -8.43276,6.84718 -9.00203,9.19751 -9.76724,10.0207 -9.76724,10.50733 0,0.21354 4.13761,4.54223 9.19469,9.6193 8.16222,8.19449 9.34219,9.22339 10.50833,9.16293 1.07608,-0.0558 2.54791,-1.28907 8.13864,-6.81958 z m -8.125,3.85502 c -0.14729,-0.23833 -0.0613,-0.43333 0.1911,-0.43333 0.25239,0 0.4589,0.195 0.4589,0.43333 0,0.23833 -0.086,0.43333 -0.19109,0.43333 -0.1051,0 -0.31161,-0.195 -0.45891,-0.43333 z m -18.05849,-23.00146 c 8.6241,-8.73488 14.1309,-14.65353 14.81685,-15.925 0.69975,-1.29704 1.42755,-2.07179 2.02716,-2.15792 1.2158,-0.17466 4.52411,-3.75603 4.21464,-4.5625 -0.38614,-1.00625 2.36727,-6.90532 3.73036,-7.99214 0.83489,-0.66569 2.15294,-1.09888 4.03164,-1.32506 l 2.79122,-0.33603 13.57145,-13.84161 c 7.46431,-7.61289 17.46824,-17.78505 22.23097,-22.60481 l 8.65949,-8.76319 0.18812,-3.93463 c 0.17427,-3.64492 0.11476,-4.01271 -0.80818,-4.99514 l -0.9963,-1.06051 -19.79936,0 c -23.9203,0 -22.0829,-0.4845 -22.0829,5.82301 0,3.41763 0.13586,4.1995 0.89812,5.16855 0.78978,1.00405 1.20795,1.14177 3.46667,1.14177 1.56467,0 2.56854,0.18459 2.56854,0.47228 0,0.46293 -34.40132,34.7051 -35.15145,34.98883 -0.21643,0.0819 -0.38188,-7.56867 -0.38188,-17.65833 l 0,-17.80278 1.98333,0 c 1.61433,0 2.219,-0.23566 3.25,-1.26666 1.21244,-1.21244 1.26667,-1.43372 1.26667,-5.16855 0,-6.16563 1.83323,-5.69812 -22.34365,-5.69812 l -20.06011,0 -0.89812,1.14177 c -0.75212,0.95617 -0.89812,1.75396 -0.89812,4.9078 0,4.69277 0.62761,5.52301 4.33334,5.73242 l 2.38333,0.13468 0.21667,43.69592 0.21666,43.69593 1.21583,1.04574 c 1.13941,0.98001 1.54327,1.04574 6.42484,1.04574 l 5.20901,0 13.72516,-13.90146 z m 23.91329,8.6925 c 0.57301,-1.07069 0.2278,-1.72437 -0.91064,-1.72437 -0.47008,0 -0.96335,-0.28318 -1.09616,-0.62928 -0.13282,-0.3461 1.33581,-5.18055 3.26359,-10.74323 1.9278,-5.56268 3.50508,-10.447 3.50508,-10.85406 0,-0.6596 -0.60698,-0.7401 -5.58028,-0.7401 -4.34954,0 -5.69543,0.13877 -6.10244,0.62918 -0.90802,1.09409 -0.36018,2.1746 1.17794,2.32328 0.77263,0.0747 1.40478,0.20712 1.40478,0.29431 0,0.0872 -1.66234,4.96063 -3.69407,10.82987 -2.03175,5.86924 -3.58024,10.85555 -3.4411,11.08069 0.13914,0.22514 2.67211,0.40934 5.62883,0.40934 4.95068,0 5.41291,-0.0693 5.84447,-0.87563 z m 14.75702,0.42705 c 1.02903,-0.55072 1.08384,-1.65959 0.11698,-2.36657 -0.65882,-0.48174 -0.52094,-1.15122 1.59396,-7.73944 l 2.31517,-7.21208 4.25604,0 c 2.34082,0 4.25603,0.14889 4.25603,0.33087 0,0.18198 -1.0725,3.70295 -2.38333,7.82439 -2.58238,8.11934 -2.73343,8.95101 -1.69789,9.34838 1.13684,0.43624 7.54432,0.29543 8.44304,-0.18555 0.9729,-0.52068 1.13492,-2.15142 0.21376,-2.15142 -0.34343,0 -0.73018,-0.17111 -0.85944,-0.38025 -0.12925,-0.20914 0.79169,-3.57289 2.04653,-7.475 l 2.28153,-7.09475 4.21123,-0.12403 c 2.31618,-0.0682 4.20756,0.0293 4.20307,0.21667 -0.005,0.18738 -1.15693,3.94819 -2.56096,8.35736 -1.82108,5.71883 -2.42457,8.17192 -2.10544,8.55833 0.60589,0.73362 9.05724,0.75233 9.7879,0.0217 0.79819,-0.79819 0.61823,-1.99042 -0.34666,-2.29667 -0.47667,-0.15129 -0.86667,-0.46874 -0.86667,-0.70544 0,-0.23671 1.2675,-4.53126 2.81667,-9.54344 1.54916,-5.01218 2.81666,-9.36157 2.81666,-9.66532 0,-0.30374 -0.40415,-1.06605 -0.89811,-1.69403 -0.84279,-1.07143 -1.12216,-1.14177 -4.53492,-1.14177 -3.42298,0 -3.72386,0.0764 -5.11743,1.3 -1.1281,0.99049 -1.90192,1.3 -3.25014,1.3 -1.38171,0 -2.06097,-0.2849 -3.0994,-1.3 -1.21887,-1.19149 -1.58058,-1.3 -4.33333,-1.3 -2.75275,0 -3.11446,0.10851 -4.33333,1.3 -1.05844,1.03466 -1.7083,1.3 -3.18387,1.3 -1.49432,0 -2.0956,-0.25219 -3.09947,-1.3 -1.22432,-1.27792 -1.32048,-1.3 -5.66134,-1.3 -3.33164,0 -4.54408,0.15448 -4.93805,0.62918 -0.76714,0.92436 -0.36888,2.16697 0.74549,2.32596 0.53381,0.0762 0.97214,0.27116 0.97406,0.43333 0.002,0.16218 -1.60682,5.02725 -3.575,10.81127 -3.05156,8.96789 -3.48278,10.57806 -2.92849,10.93504 0.87147,0.56125 7.63953,0.54826 8.69515,-0.0167 z m 8.85002,-12.67998 c 0.58447,-1.94204 0.5735,-2.03811 -0.23256,-2.03811 -0.46527,0 -0.84594,-0.195 -0.84594,-0.43333 0,-0.23834 -0.48064,-0.43334 -1.06809,-0.43334 -1.28275,0 -2.13631,1.367 -1.83564,2.93982 0.12013,0.62845 -0.13958,1.78401 -0.59911,2.66563 -0.44614,0.85594 -0.93614,2.23613 -1.08887,3.06707 l -0.27771,1.51082 2.66727,-2.62023 c 1.95871,-1.92417 2.83021,-3.16164 3.28065,-4.65833 z m -77.53332,-20.7104 c 0.0157,-1.2894 0.11319,-6.33904 0.21667,-11.22141 0.16326,-7.70269 0.10089,-8.89389 -0.47144,-9.00442 -0.37303,-0.072 -2.96657,2.20614 -5.96972,5.24386 -5.15655,5.2159 -5.29664,5.40741 -4.84359,6.62109 0.53988,1.44632 9.94571,11.07697 10.60093,10.85432 0.24125,-0.082 0.45147,-1.20402 0.46715,-2.49344 z m 60.56345,1.75363 c 1.42264,-1.11905 2.85224,-5.32455 2.1761,-6.40153 -0.63581,-1.01276 -5.4704,-1.25211 -6.86281,-0.33977 -0.9542,0.62522 -2.38859,3.93179 -2.38859,5.5062 0,1.4048 1.23382,2.12043 3.65585,2.12043 1.65391,0 2.60797,-0.24702 3.41945,-0.88533 z m 2.0247,-50.01022 c 0,-0.22985 -0.73125,-1.1675 -1.625,-2.08366 -1.60444,-1.64467 -1.6235,-1.70499 -1.5063,-4.76804 l 0.11869,-3.10229 -5.09525,-5.10856 c -3.77114,-3.78099 -5.37468,-5.10857 -6.17048,-5.10857 -0.69933,0 -1.80001,0.71389 -3.14844,2.04205 -2.23146,2.1979 -2.32933,2.46521 -1.58223,4.32141 0.79517,1.97563 0.46192,9.19779 -0.49618,10.75321 -1.18958,1.93122 -3.10227,3.59054 -4.32814,3.75482 l -1.08334,0.14518 -0.11572,11.47655 c -0.0636,6.3121 -0.006,11.76208 0.12776,12.11106 0.16697,0.43514 4.11805,-3.23826 12.57406,-11.69036 6.78181,-6.77869 12.33057,-12.51295 12.33057,-12.7428 z"
       style="fill:#0b110c" />
  </g>
  <g
     inkscape:label="pirate boy"
     inkscape:groupmode="layer"
     id="layer1"
     style="display:inline"
     sodipodi:insensitive="true"
     transform="translate(0,2.172441e-5)">
    <g
       id="g5740">
      <path
         transform="matrix(0.94039735,0,0,1.0307438,28.370861,-23.038224)"
         d="m 476,760.86218 c 0,6.35128 -33.8025,11.5 -75.5,11.5 -41.6975,0 -75.5,-5.14872 -75.5,-11.5 0,-6.35127 33.8025,-11.5 75.5,-11.5 41.6975,0 75.5,5.14873 75.5,11.5 z"
         sodipodi:ry="11.5"
         sodipodi:rx="75.5"
         sodipodi:cy="760.86218"
         sodipodi:cx="400.5"
         id="path5718"
         style="fill:url(#radialGradient5738);fill-opacity:1;stroke:none"
         sodipodi:type="arc" />
      <g
         id="g5648">
        <rect
           style="fill:#fcddc8;fill-opacity:1;stroke:#000000;stroke-width:3.61935592;stroke-miterlimit:4;stroke-opacity:1;stroke-dasharray:none"
           id="rect3226"
           width="42.225819"
           height="62.735504"
           x="397.89136"
           y="638.11633" />
        <path
           style="fill:#ffffff;fill-opacity:1;stroke:#000000;stroke-width:3.61935592;stroke-miterlimit:4;stroke-opacity:1"
           d="m 398.29452,647.23105 41.57208,-0.21792 0,53.58313 -42.22582,0 0.65374,-53.36521 z"
           id="rect3427"
           sodipodi:nodetypes="ccccc" />
        <path
           style="fill:#000000;fill-opacity:1;stroke:#000000;stroke-width:3.61935592;stroke-miterlimit:4;stroke-opacity:1"
           d="m 438.9942,684.48248 2.0944,16.28857 -44.18932,0.13088 1.0472,-16.20154 41.04772,-0.21792 z"
           id="rect3424"
           sodipodi:nodetypes="ccccc" />
        <path
           style="fill:#fcddc8;fill-opacity:1;fill-rule:evenodd;stroke:#000000;stroke-width:1.80967796;stroke-linecap:butt;stroke-linejoin:miter;stroke-miterlimit:4;stroke-opacity:1;stroke-dasharray:none"
           d="m 399.01326,647.92057 c 2.51966,0.6302 4.17161,0.40462 6.76483,0.0216 l 6.41897,-2.52761 c 5.92265,-2.33219 -2.50258,13.30282 -4.29866,19.40945 l 0.81204,13.27766 -0.74798,-13.16318 c -3.12835,-5.23682 -14.86696,-18.49803 -8.9492,-17.01792 z"
           id="path3430"
           sodipodi:nodetypes="ccscccs" />
        <path
           sodipodi:type="arc"
           style="fill:#fcddc8;fill-opacity:1;fill-rule:evenodd;stroke:#000000;stroke-width:3;stroke-linecap:butt;stroke-linejoin:miter;stroke-miterlimit:4;stroke-opacity:1;stroke-dasharray:none"
           id="path2454"
           sodipodi:cx="1043.5"
           sodipodi:cy="324.36218"
           sodipodi:rx="53.5"
           sodipodi:ry="55"
           d="m 1097,324.36218 c 0,30.37566 -23.9528,55 -53.5,55 -29.5472,0 -53.5,-24.62434 -53.5,-55 0,-30.37566 23.9528,-55 53.5,-55 29.5472,0 53.5,24.62434 53.5,55 z"
           transform="matrix(0.60322598,0,0,0.60322598,-210.76364,424.95905)" />
        <path
           style="fill:none;stroke:#000000;stroke-width:3.61935592;stroke-linecap:butt;stroke-linejoin:miter;stroke-miterlimit:4;stroke-opacity:1;stroke-dasharray:none"
           d="m 397.95202,647.35392 c -20.52539,8.11429 -23.04414,-0.5578 -51.02268,0.66263"
           id="path3228"
           sodipodi:nodetypes="cc" />
        <path
           style="fill:none;stroke:#000000;stroke-width:3.61935592;stroke-linecap:butt;stroke-linejoin:miter;stroke-miterlimit:4;stroke-opacity:1;stroke-dasharray:none"
           d="m 430.51334,656.37553 c 22.53371,3.89132 21.3549,7.87089 23.18993,30.51855"
           id="path3230"
           sodipodi:nodetypes="cc" />
        <path
           style="fill:none;stroke:#000000;stroke-width:3.61935592;stroke-linecap:butt;stroke-linejoin:miter;stroke-miterlimit:4;stroke-opacity:1;stroke-dasharray:none"
           d="m 398.76181,746.26243 8.66246,-44.8571"
           id="path3260"
           sodipodi:nodetypes="cc" />
        <path
           style="fill:none;stroke:#000000;stroke-width:3.61935592;stroke-linecap:butt;stroke-linejoin:miter;stroke-miterlimit:4;stroke-opacity:1;stroke-dasharray:none"
           d="m 438.8365,746.07639 -7.09914,-45.09762"
           id="path3262"
           sodipodi:nodetypes="cc" />
        <path
           style="fill:none;stroke:#000000;stroke-width:2.72106671;stroke-linecap:round;stroke-linejoin:miter;stroke-miterlimit:4;stroke-opacity:1;stroke-dasharray:none"
           d="m 328.56876,645.31426 c 11.51766,0.26981 17.74334,0.33253 19.03096,2.66697 0.65101,1.18028 -1.05874,3.66276 -5.10795,6.32478"
           id="path3264"
           sodipodi:nodetypes="csc" />
        <path
           style="fill:none;stroke:#000000;stroke-width:3.61935592;stroke-linecap:butt;stroke-linejoin:miter;stroke-miterlimit:4;stroke-opacity:1;stroke-dasharray:none"
           d="m 460.1468,696.72638 c -0.59786,-16.20061 -11.95394,-12.92355 -14.16228,-0.99451"
           id="path3266"
           sodipodi:nodetypes="cc" />
        <path
           sodipodi:type="arc"
           style="fill:#000000;fill-opacity:1;stroke:#000000;stroke-width:6;stroke-miterlimit:4;stroke-opacity:1;stroke-dasharray:none"
           id="path3280"
           sodipodi:cx="1064.1875"
           sodipodi:cy="289.98718"
           sodipodi:rx="2.9375"
           sodipodi:ry="8.875"
           d="m 1067.125,289.98718 c 0,4.90153 -1.3152,8.875 -2.9375,8.875 -1.6223,0 -2.9375,-3.97347 -2.9375,-8.875 0,-4.90152 1.3152,-8.875 2.9375,-8.875 1.6223,0 2.9375,3.97348 2.9375,8.875 z"
           transform="matrix(0.63047342,0,0,0.53300363,-275.24455,461.26759)" />
        <path
           style="fill:#ff0000;fill-opacity:1;stroke:#000000;stroke-width:1.80967796;stroke-miterlimit:4;stroke-opacity:1"
           d="m 397.82126,676.21486 41.82098,-0.26179 1.17812,15.75214 -44.3081,0.13089 1.309,-15.62125 z"
           id="rect3436"
           sodipodi:nodetypes="ccccc" />
        <path
           style="fill:#bb7438;fill-opacity:1;stroke:#000000;stroke-width:1.80967796;stroke-miterlimit:4;stroke-opacity:1;display:inline"
           d="m 402.87554,744.07123 -8.5167,-2.34337 -0.98948,11.14393 c -0.47949,9.29418 -25.81963,-5.5923 -27.69646,3.52303 l -2.18906,10.63166 39.24575,-7.40485 0.14595,-15.5504 z"
           id="path3445"
           sodipodi:nodetypes="ccccccc" />
        <path
           style="opacity:0.85;fill:#ff0000;fill-opacity:1;stroke:#000000;stroke-width:1.80967796;stroke-miterlimit:4;stroke-opacity:1"
           d="m 397.47404,676.34457 14.92267,0 4.71242,57.85807 -13.10053,7.31954 -12.55599,-7.84314 6.02143,-57.33447 z"
           id="rect3439"
           sodipodi:nodetypes="cccccc" />
        <path
           style="fill:#bb7438;fill-opacity:1;stroke:#000000;stroke-width:1.67694545;stroke-miterlimit:4;stroke-opacity:1"
           d="m 442.85078,737.71692 -8.55316,-1.78581 -0.75161,14.5687 c -0.44434,8.6125 -23.92587,-5.18214 -25.66505,3.26464 l -2.02849,9.85187 36.36722,-6.86176 0.63109,-19.03764 z"
           id="rect3442"
           sodipodi:nodetypes="ccccccc" />
        <path
           style="fill:#ffff00;fill-opacity:1;fill-rule:evenodd;stroke:#000000;stroke-width:1.80967796;stroke-linecap:butt;stroke-linejoin:miter;stroke-miterlimit:4;stroke-opacity:1;stroke-dasharray:none"
           d="m 422.87627,617.85139 c 18.97311,4.50457 20.44744,21.30088 20.62894,23.81741 17.20582,-7.82163 11.75124,-34.80878 0.12734,-46.3657 -17.77335,-13.13829 -46.46024,-7.0055 -51.33967,2.62131 -3.21374,6.34052 10.93814,15.26283 30.58339,19.92698 z"
           id="path2443"
           sodipodi:nodetypes="cccss" />
        <path
           style="fill:#ffff00;fill-opacity:1;stroke:#000000;stroke-width:1.20645201;stroke-miterlimit:4;stroke-opacity:1;stroke-dasharray:none"
           d="m 404.02989,648.70781 c -1.11994,1.88489 -4.63343,8.29586 -4.55851,8.21584 -2.22523,-4.77219 -3.77702,-9.81404 -5.50481,-14.77744 0.0815,0.0581 2.26084,1.09472 4.89257,-0.95125 1.05832,-0.0109 5.24442,1.5526 6.16749,1.13956 1.4585,-0.14082 0.61813,1.78423 0.39838,2.54953 -0.38042,1.30411 -0.78894,2.6033 -1.39512,3.82376 z"
           id="path3309"
           sodipodi:nodetypes="cccccsc" />
        <path
           style="fill:none;stroke:#000000;stroke-width:2.72106671;stroke-linecap:round;stroke-linejoin:miter;stroke-miterlimit:4;stroke-opacity:1;stroke-dasharray:none"
           d="m 342.6799,648.96895 c 0,0 -1.20962,2.65894 -2.39987,1.73285 -2.16175,-1.68199 -3.7043,-6.21227 0.76898,-4.96969"
           id="path5030"
           sodipodi:nodetypes="css" />
        <path
           style="fill:#980101;fill-opacity:1;stroke:#000000;stroke-width:1.36053336;stroke-miterlimit:4;stroke-dasharray:none"
           d="m 389.4319,632.90716 c 0.77177,2.92353 1.32381,4.96422 2.57286,4.57669 23.3736,4.62538 17.43427,-10.60714 -2.57286,-4.57669 z"
           id="rect5032"
           sodipodi:nodetypes="ccc" />
        <path
           style="fill:none;stroke:#000000;stroke-width:1.36053336;stroke-linecap:butt;stroke-linejoin:miter;stroke-miterlimit:4;stroke-opacity:1;stroke-dasharray:none"
           d="m 421.61884,623.31736 c 5.76417,0.77517 8.40662,5.09062 0.8652,7.89123"
           id="path5455"
           sodipodi:nodetypes="cc" />
      </g>
    </g>
  </g>
  <g
     inkscape:groupmode="layer"
     id="layer3"
     inkscape:label="pirate girl"
     style="display:inline"
     sodipodi:insensitive="true"
     transform="translate(0,2.172441e-5)">
    <g
       id="g5685">
      <path
         transform="matrix(1,0,0,1.1015625,22,-74.005534)"
         d="m 385,828.36218 a 70,16 0 1 1 -140,0 70,16 0 1 1 140,0 z"
         sodipodi:ry="16"
         sodipodi:rx="70"
         sodipodi:cy="828.36218"
         sodipodi:cx="315"
         id="path5671"
         style="fill:url(#radialGradient5683);fill-opacity:1;stroke:none"
         sodipodi:type="arc" />
      <g
         transform="translate(12,-4)"
         id="g5596">
        <path
           style="fill:none;stroke:#000000;stroke-width:3.38248253;stroke-linecap:butt;stroke-linejoin:miter;stroke-miterlimit:4;stroke-opacity:1;stroke-dasharray:none;display:inline"
           d="M 349.26772,832.62759 342.6167,790.60805"
           id="path3292"
           sodipodi:nodetypes="cc" />
        <path
           style="fill:none;stroke:#000000;stroke-width:3.38248253;stroke-linecap:butt;stroke-linejoin:miter;stroke-miterlimit:4;stroke-opacity:1;stroke-dasharray:none;display:inline"
           d="m 315.89233,831.5227 4.0025,-41.31329"
           id="path3294"
           sodipodi:nodetypes="cc" />
        <path
           style="fill:#ffffff;fill-opacity:1;stroke:#000000;stroke-width:3.38248253;stroke-miterlimit:4;stroke-opacity:1;display:inline"
           d="m 348.51508,742.06395 c -5.95713,-3.69097 -27.0717,-3.66452 -34.25849,-2.2304 -3.45953,6.67256 -4.16302,7.83308 -6.06616,12.63147 1.94739,6.4853 7.10692,9.01292 8.90963,13.47187 -0.94782,4.37191 -5.51491,9.54103 -6.56647,14.37741 -1.70019,7.81957 0.10058,15.49133 4.07844,18.74138 3.93379,3.21403 11.62526,3.09074 18.56882,3.36483 7.84977,0.3099 15.58596,0.64809 18.28698,-3.36483 2.31014,-3.4322 4.4349,-9.96677 4.14606,-15.8993 -0.39314,-8.07484 -3.94454,-16.24668 -5.42482,-25.18833 -1.13348,-6.84672 1.80429,-13.749 -1.67399,-15.9041 z"
           id="rect3284"
           sodipodi:nodetypes="ccccsssssss" />
        <path
           style="fill:#000000;fill-opacity:1;stroke:#000000;stroke-width:3.38248253;stroke-miterlimit:4;stroke-opacity:1;display:inline"
           d="m 309.90735,785.41999 c -0.11908,5.78745 1.65256,10.9038 4.71245,13.40383 3.93378,3.21403 11.62526,3.09074 18.5688,3.36484 7.84977,0.30989 15.58597,0.64809 18.28699,-3.36484 1.87413,-2.7844 3.62625,-7.61061 4.06666,-12.50074 0.10241,-1.1377 -45.59917,-2.63936 -45.6349,-0.90309 z"
           id="path3416"
           sodipodi:nodetypes="csssss" />
        <path
           style="fill:#fcddc8;fill-opacity:1;fill-rule:evenodd;stroke:#000000;stroke-width:2.25498819;stroke-linecap:butt;stroke-linejoin:miter;stroke-miterlimit:4;stroke-opacity:1;stroke-dasharray:none;display:inline"
           d="m 320.86778,743.71728 -6.8873,-1.61056 0.33024,7.6487 6.55706,-6.03814 z"
           id="path3414"
           sodipodi:nodetypes="cccc" />
        <path
           sodipodi:type="arc"
           style="fill:#fcddc8;fill-opacity:1;fill-rule:evenodd;stroke:#000000;stroke-width:3;stroke-linecap:butt;stroke-linejoin:miter;stroke-miterlimit:4;stroke-opacity:1;stroke-dasharray:none;display:inline"
           id="path3286"
           sodipodi:cx="1043.5"
           sodipodi:cy="324.36218"
           sodipodi:rx="53.5"
           sodipodi:ry="55"
           d="m 1097,324.36218 a 53.5,55 0 1 1 -107,0 53.5,55 0 1 1 107,0 z"
           transform="matrix(-0.56374705,0,0,0.56374705,920.34644,532.25417)" />
        <path
           style="fill:none;stroke:#000000;stroke-width:3.38248253;stroke-linecap:butt;stroke-linejoin:miter;stroke-miterlimit:4;stroke-opacity:1;stroke-dasharray:none;display:inline"
           d="m 344.49715,748.58013 c 20.04365,8.83201 28.71723,9.69592 16.22187,21.64016"
           id="path3288"
           sodipodi:nodetypes="cc" />
        <path
           style="fill:none;stroke:#000000;stroke-width:3.38248253;stroke-linecap:butt;stroke-linejoin:miter;stroke-miterlimit:4;stroke-opacity:1;stroke-dasharray:none;display:inline"
           d="m 312.2223,744.12064 c -8.77075,7.82425 -12.9431,9.73351 -18.81106,12.21648 -5.41966,2.29327 -9.15394,2.36326 -17.89538,-6.91151"
           id="path3290"
           sodipodi:nodetypes="csc" />
        <path
           style="fill:none;stroke:#000000;stroke-width:3.38248253;stroke-linecap:butt;stroke-linejoin:miter;stroke-miterlimit:4;stroke-opacity:1;stroke-dasharray:none;display:inline"
           d="m 358.8052,782.80962 c 8.8008,-12.33241 -2.70796,-17.71858 -11.14868,-10.14899"
           id="path3296"
           sodipodi:nodetypes="cc" />
        <path
           style="fill:none;stroke:#888888;stroke-width:2.82509971;stroke-linecap:butt;stroke-linejoin:miter;stroke-miterlimit:4;stroke-opacity:1;stroke-dasharray:none;display:inline"
           d="m 267.15433,737.74521 c -4.31622,-7.45202 -5.24999,-8.4836 -8.65341,-8.66039 -4.04324,-0.21003 -5.52101,5.56898 -2.01191,7.38843"
           id="path5116"
           sodipodi:nodetypes="csc" />
        <path
           style="fill:#aaaaaa;stroke:#888888;stroke-width:2.82509971;stroke-linecap:butt;stroke-linejoin:miter;stroke-miterlimit:4;stroke-opacity:1;stroke-dasharray:none;display:inline"
           d="m 274.46114,737.44792 c 6.85828,13.50949 -3.90748,15.9815 -11.12174,7.23512"
           id="path3298"
           sodipodi:nodetypes="cc" />
        <path
           sodipodi:type="arc"
           style="fill:#000000;fill-opacity:1;stroke:#000000;stroke-width:6;stroke-miterlimit:4;stroke-opacity:1;stroke-dasharray:none;display:inline"
           id="path3302"
           sodipodi:cx="1045.625"
           sodipodi:cy="289.29968"
           sodipodi:rx="3"
           sodipodi:ry="10.3125"
           d="m 1048.625,289.29968 a 3,10.3125 0 1 1 -6,0 3,10.3125 0 1 1 6,0 z"
           transform="matrix(-0.53937184,0,0,0.49113511,872.26649,571.36242)" />
        <path
           style="fill:#b66ea6;fill-opacity:1;stroke:#000000;stroke-width:2.25498819;stroke-miterlimit:4;stroke-opacity:1;display:inline"
           d="m 354.38797,774.70809 -41.21031,-0.44631 -2.57985,10.39455 45.24198,0.51662 -1.45182,-10.46486 z"
           id="rect3418"
           sodipodi:nodetypes="ccccc" />
        <path
           style="fill:#bb7438;fill-opacity:1;stroke:#000000;stroke-width:1.40403771;stroke-miterlimit:4;stroke-opacity:1;display:inline"
           d="m 352.72456,827.32569 -7.34571,0.94953 -0.76768,6.63531 c -1.608,7.38745 -12.79282,-8.39986 -14.42553,-3.7997 l -2.58123,7.18916 24.2689,4.31936 0.85125,-15.29366 z"
           id="path3447"
           sodipodi:nodetypes="ccccccc" />
        <path
           style="fill:#000000;fill-opacity:1;stroke:#000000;stroke-width:3.38248253;stroke-miterlimit:4;stroke-opacity:1;display:inline"
           d="m 310.33038,784.96188 c -1.13422,-0.68672 -7.78734,28.68435 -4.30912,30.89643 1.93543,1.23094 6.32109,-5.86595 8.72652,-3.63904 2.07217,1.91831 7.81406,5.13274 9.76236,7.80372 2.28861,3.13754 7.68927,-6.27518 11.67684,-6.11778 3.87457,0.15295 13.83771,6.99537 15.86895,3.9243 1.93473,-2.92512 -0.30297,-4.38867 1.3617,-5.61063 1.50598,-1.10541 9.916,5.93326 12.02416,4.84168 2.52098,-1.30525 -9.20091,-33.13117 -10.73937,-31.69734 -0.31989,0.29811 -15.75958,3.01348 -24.2523,3.02734 -8.71252,0.0143 -19.18881,-2.86511 -20.11974,-3.42868 z"
           id="path3520"
           sodipodi:nodetypes="cssssssssss" />
        <path
           style="opacity:0.85;fill:#b66ea6;fill-opacity:1;stroke:#000000;stroke-width:1.69124126;stroke-miterlimit:4;stroke-opacity:1;stroke-dasharray:none;display:inline"
           d="m 354.89379,774.55378 -11.36598,-0.25832 0.45269,41.20125 12.37825,11.5385 7.21099,-12.42114 c 0,0 -5.25762,-22.8366 -7.04234,-33.56503 -0.32971,-1.98202 -1.63361,-6.49526 -1.63361,-6.49526 z"
           id="rect3421"
           sodipodi:nodetypes="cccccsc" />
        <path
           style="fill:#bb7438;fill-opacity:1;stroke:#000000;stroke-width:1.41832983;stroke-miterlimit:4;stroke-opacity:1;display:inline"
           d="m 319.98632,830.05944 -6.42486,-3.52659 -3.95653,11.68676 c -2.33896,6.90878 -18.28659,-9.71132 -21.64154,-3.2347 l -3.91303,7.55398 31.17921,2.76357 4.75675,-15.24302 z"
           id="path3449"
           sodipodi:nodetypes="ccccccc" />
        <g
           id="g3471"
           transform="matrix(0.56374705,0,0,0.56374705,40.859241,382.77303)"
           style="fill:#7f1809;fill-opacity:1;display:inline">
          <path
             sodipodi:nodetypes="csssssssssssccs"
             id="path3464"
             d="m 575.13345,601.22852 c -1.38355,2.59607 -2.42246,9.5584 -0.55323,14.91817 1.74293,4.99759 1.14738,10.26233 1.7515,15.45123 0.5098,4.37876 3.17541,11.48646 7.23537,12.83973 2.93162,0.97716 2.87722,-9.59166 2.26529,-5.2224 -0.61419,4.38537 -0.31316,5.63107 3.43657,10.95286 6.70369,9.51418 10.66975,15.0449 12.75635,22.75588 1.48414,5.48456 2.36363,5.8022 2.76499,11.43881 0.15555,2.18454 14.95236,31.16938 14.20725,25.90566 -1.49613,-10.56915 -6.24205,-24.91988 -5.35305,-29.45389 1.89028,-9.64062 3.07823,-14.55731 3.36268,-24.42072 0.15152,-5.25436 2.07414,-13.76034 0.99397,-18.9021 -1.04258,-4.96283 -4.35715,-19.18841 -7.65451,-22.31882 -20.52847,-17.56215 -25.4375,-9.63685 -34.14245,-10.85563 -0.69604,-0.86946 -0.71507,-3.75613 -1.07073,-3.08878 z"
             style="fill:#7f1809;fill-opacity:1;fill-rule:evenodd;stroke:#000000;stroke-width:3;stroke-linecap:butt;stroke-linejoin:miter;stroke-miterlimit:4;stroke-opacity:1;stroke-dasharray:none" />
          <path
             d="m 576.71163,603.3703 a 5.0727177,6.4254422 0 1 1 -10.14543,0 5.0727177,6.4254422 0 1 1 10.14543,0 z"
             sodipodi:ry="6.4254422"
             sodipodi:rx="5.0727177"
             sodipodi:cy="603.3703"
             sodipodi:cx="571.63892"
             id="path3469"
             style="fill:#7f1809;fill-opacity:1;stroke:#000000;stroke-width:3;stroke-miterlimit:4;stroke-opacity:1;stroke-dasharray:none"
             sodipodi:type="arc" />
        </g>
        <path
           style="fill:#7f1809;fill-opacity:1;fill-rule:evenodd;stroke:#000000;stroke-width:1.69124126;stroke-linecap:butt;stroke-linejoin:miter;stroke-miterlimit:4;stroke-opacity:1;stroke-dasharray:none;display:inline"
           d="m 350.77116,688.74518 c -4.36439,-3.7584 -9.87208,-5.14359 -15.81284,-6.20117 -2.13119,-0.31391 -20.5569,1.48035 -24.49324,10.06161 -6.1294,10.89401 26.28935,40.43476 42.38568,44.11193 16.55057,-13.76359 11.53861,-34.64588 -2.0796,-47.97237 z"
           id="path3453"
           sodipodi:nodetypes="ccccc" />
        <g
           id="g3303"
           transform="matrix(-0.56374705,0,0,0.56374705,615.04894,352.97602)"
           style="fill:#fa6f22;fill-opacity:1;display:inline">
          <g
             transform="translate(4.4741515,-1.565953)"
             id="g3299"
             style="fill:#fa6f22;fill-opacity:1">
            <path
               sodipodi:type="arc"
               style="fill:#fa6f22;fill-opacity:1;stroke:#000000;stroke-width:3;stroke-miterlimit:4;stroke-opacity:1;stroke-dasharray:none"
               id="path3287"
               sodipodi:cx="439.78622"
               sodipodi:cy="591.8186"
               sodipodi:rx="11.138101"
               sodipodi:ry="4.5564957"
               d="m 450.92432,591.8186 a 11.138101,4.5564957 0 1 1 -22.2762,0 11.138101,4.5564957 0 1 1 22.2762,0 z"
               transform="matrix(0.907951,0.4190764,-0.4190764,0.907951,274.3233,-108.90156)" />
            <path
               sodipodi:type="arc"
               style="fill:#fa6f22;fill-opacity:1;stroke:#000000;stroke-width:3;stroke-miterlimit:4;stroke-opacity:1;stroke-dasharray:none"
               id="path3289"
               sodipodi:cx="438.77368"
               sodipodi:cy="607.0069"
               sodipodi:rx="11.813137"
               sodipodi:ry="4.8940139"
               d="m 450.58682,607.0069 a 11.813137,4.8940139 0 1 1 -23.62628,0 11.813137,4.8940139 0 1 1 23.62628,0 z"
               transform="matrix(0.9513457,-0.3081256,0.3081256,0.9513457,-178.84933,182.61936)" />
          </g>
          <path
             transform="matrix(1.0054759,0,0,1.2534735,-9.6699676,-131.6459)"
             d="m 458.01223,598.56897 a 7.2566414,5.2315321 0 1 1 -14.51329,0 7.2566414,5.2315321 0 1 1 14.51329,0 z"
             sodipodi:ry="5.2315321"
             sodipodi:rx="7.2566414"
             sodipodi:cy="598.56897"
             sodipodi:cx="450.75558"
             id="path3281"
             style="fill:#fa6f22;fill-opacity:1;stroke:#000000;stroke-width:3;stroke-miterlimit:4;stroke-opacity:1;stroke-dasharray:none"
             sodipodi:type="arc" />
        </g>
        <path
           style="opacity:0.9;fill:#fa6310;fill-opacity:1;fill-rule:evenodd;stroke:#000000;stroke-width:1.69124126;stroke-linecap:butt;stroke-linejoin:miter;stroke-miterlimit:4;stroke-opacity:1;display:inline"
           d="m 361.92871,704.87653 c -3.47178,-13.18442 -14.14721,-22.45636 -28.06544,-22.45636 -14.0324,0 -26.6354,7.18322 -30.62297,21.53167 -0.31118,1.23526 13.38884,-3.85184 29.72516,-3.69393 16.57946,0.16025 29.30629,5.92137 28.96325,4.61862 z"
           id="path3277"
           sodipodi:nodetypes="cccsc" />
        <path
           style="fill:#aaaaaa;stroke:#888888;stroke-width:2.82509971;stroke-linecap:butt;stroke-linejoin:miter;stroke-miterlimit:4;stroke-opacity:1;stroke-dasharray:none;display:inline"
           d="m 264.02307,745.44311 c 0.3901,-7.54943 4.08385,-9.63513 10.59412,-7.06275"
           id="path5114"
           sodipodi:nodetypes="cc" />
        <path
           sodipodi:nodetypes="ccsc"
           id="path5112"
           d="m 316.61812,732.22827 c -1.23683,-4.40113 -5.84674,-5.18823 -11.72203,-4.61957 0,0 1.38628,3.30947 2.24735,4.28401 2.96543,3.35624 9.47468,0.33556 9.47468,0.33556 z"
           style="fill:#980101;fill-opacity:1;stroke:#000000;stroke-width:0.7223773" />
      </g>
    </g>
  </g>
  <g
     inkscape:groupmode="layer"
     id="layer4"
     inkscape:label="camera"
     style="display:none"
     transform="translate(0,2.172441e-5)">
    <rect
       style="opacity:0.17410715;fill:#ffff00;fill-opacity:1;stroke:#000000;stroke-width:2.57761097;stroke-miterlimit:4;stroke-opacity:1;stroke-dasharray:none"
       id="rect3336"
       width="414.96027"
       height="416.30319"
       x="62.494583"
       y="462.88544"
       inkscape:export-filename="/home/arthurb/inkscape/vim-mutiny/vim-mutiny.png"
       inkscape:export-xdpi="90"
       inkscape:export-ydpi="90" />
  </g>
</svg>
